<svg width="164" height="24" viewBox="0 0 164 24" fill="none" xmlns="http://www.w3.org/2000/svg">
<g clip-path="url(#clip0_3477_7455)">
<path fill-rule="evenodd" clip-rule="evenodd" d="M55.5684 4.43478C56.1452 4.43478 56.6124 4.90194 56.6124 5.47822V19.0435C56.6124 19.6198 56.1452 20.087 55.569 20.087C55.2291 20.087 54.9276 19.925 54.737 19.6741L49.349 14.2868L50.2253 13.4121C50.3596 13.2777 50.5388 13.1881 50.7384 13.1679L50.8252 13.1635C51.0756 13.1635 51.3007 13.272 51.4559 13.4446L51.4568 13.4431L54.5246 16.5099L54.525 5.47822C54.525 4.90194 54.9922 4.43478 55.5684 4.43478ZM42.0002 4.43478C42.577 4.43478 43.0442 4.90194 43.0442 5.47822L43.0437 16.535L48.0469 11.5342C48.2399 11.3412 48.4897 11.2396 48.7424 11.2295L48.8516 11.2295C49.1044 11.2396 49.3542 11.3412 49.5472 11.5342L50.4397 12.4268C50.1584 12.495 49.8917 12.6388 49.672 12.8584L43.9316 18.5919L43.9349 18.5953L42.788 19.7426C42.7526 19.778 42.7153 19.8103 42.6765 19.8395C42.4942 19.9936 42.2584 20.087 42.0008 20.087C41.4239 20.087 40.9568 19.6198 40.9568 19.0435V5.47822C40.9568 4.90194 41.4239 4.43478 42.0002 4.43478ZM61.3091 19.0435C61.3091 19.6198 60.8419 20.087 60.2657 20.087C59.6888 20.087 59.2217 19.6198 59.2217 19.0435V13.0435C59.2217 11.8909 60.156 10.9565 61.3086 10.9565L61.6364 10.9566C61.4301 11.2523 61.3091 11.612 61.3091 12V19.0435ZM70.572 4.43478C72.9497 4.43478 74.8773 6.3619 74.8773 8.73913C74.8773 11.1164 72.9497 13.0435 70.572 13.0435H62.0918L62.0919 12C62.0919 11.4499 62.5176 10.9992 63.0577 10.9594L63.1222 10.9565H70.572C71.7969 10.9565 72.7899 9.96376 72.7899 8.73913C72.7899 7.52857 71.8196 6.54459 70.6141 6.52213L60.2652 6.52174C59.6889 6.52174 59.2217 6.05456 59.2217 5.47826C59.2217 4.90196 59.6889 4.43478 60.2652 4.43478H70.572ZM87.2809 11.2167L87.4018 11.2174C89.8516 11.2174 91.8376 13.2029 91.8376 15.6522C91.8376 18.1014 89.8516 20.087 87.4018 20.087H77.2254C76.6491 20.087 76.1819 19.6198 76.1819 19.0435C76.1819 18.4672 76.6491 18 77.2254 18H87.4018C88.6843 18 89.7267 16.9721 89.7497 15.6953L89.7501 15.6522C89.75 13.7791 88.763 12.137 87.2809 11.2167ZM90.7941 4.43478C91.3704 4.43478 91.8376 4.90196 91.8376 5.47826C91.8376 6.05456 91.3704 6.52174 90.7941 6.52174H80.6177C79.3351 6.52174 78.2927 7.54967 78.2697 8.82643L78.2693 8.86956C78.2693 10.1518 79.2975 11.194 80.5746 11.217L84.5316 11.2174C86.218 11.2174 87.6846 12.1583 88.4349 13.5436C88.1352 13.3962 87.7997 13.3111 87.4449 13.3047L87.4018 13.3043L84.4009 13.3038L80.6177 13.3043C78.1679 13.3043 76.1819 11.3188 76.1819 8.86956C76.1819 6.4203 78.1679 4.43478 80.6177 4.43478H90.7941ZM109.32 4.43478C113.643 4.43478 117.147 7.93864 117.147 12.2609C117.147 16.5831 113.643 20.087 109.32 20.087C104.996 20.087 101.492 16.5831 101.492 12.2609C101.492 7.93864 104.996 4.43478 109.32 4.43478ZM109.32 6.52174C106.149 6.52174 103.579 9.09123 103.579 12.2609C103.579 15.4305 106.149 18 109.32 18C112.49 18 115.06 15.4305 115.06 12.2609C115.06 9.09123 112.49 6.52174 109.32 6.52174ZM126.019 4.43478C126.596 4.43478 127.063 4.90196 127.063 5.47826C127.063 6.05456 126.596 6.52174 126.019 6.52174H124.453C122.741 6.52174 121.35 7.89539 121.323 9.60041L121.322 9.65217L121.322 10.8256L126.019 10.8261C126.596 10.8261 127.063 11.2932 127.063 11.8695C127.063 12.4459 126.596 12.913 126.019 12.913L121.322 12.9125L121.322 19.0432C121.322 19.6197 120.855 20.087 120.279 20.087C119.702 20.087 119.235 19.6197 119.235 19.0432V9.65217C119.235 6.77069 121.571 4.43478 124.453 4.43478H126.019ZM134.891 4.43478C135.467 4.43478 135.934 4.90196 135.934 5.47826C135.934 6.05456 135.467 6.52174 134.891 6.52174H133.325C131.613 6.52174 130.222 7.89539 130.194 9.60041L130.194 9.65217L130.193 10.8256L134.891 10.8261C135.467 10.8261 135.934 11.2932 135.934 11.8695C135.934 12.4459 135.467 12.913 134.891 12.913L130.193 12.9125L130.194 19.0432C130.194 19.6197 129.727 20.087 129.15 20.087C128.574 20.087 128.106 19.6197 128.106 19.0432V9.65217C128.106 6.77069 130.443 4.43478 133.325 4.43478H134.891ZM138.543 7.95652H138.544C139.12 7.95652 139.587 8.42368 139.587 8.99996V19.0435C139.587 19.6198 139.12 20.087 138.544 20.087H138.543C137.967 20.087 137.5 19.6198 137.5 19.0435V8.99996C137.5 8.42368 137.967 7.95652 138.543 7.95652ZM138.543 4.43478H138.544C139.12 4.43478 139.587 4.90194 139.587 5.47822C139.587 6.05449 139.12 6.52174 138.544 6.52174H138.543C137.967 6.52174 137.5 6.05458 137.5 5.4783C137.5 4.90203 137.967 4.43478 138.543 4.43478ZM147.154 10.0435C145.014 10.0435 143.275 11.7605 143.241 13.8918L143.24 13.9565C143.24 16.096 144.958 17.8345 147.089 17.869L147.154 17.8696H149.503C150.079 17.8696 150.546 18.3367 150.546 18.913C150.546 19.4893 150.079 19.9565 149.503 19.9565H147.154C143.84 19.9565 141.153 17.2702 141.153 13.9565C141.153 10.6428 143.84 7.95652 147.154 7.95652H149.503C150.079 7.95652 150.546 8.4237 150.546 9C150.546 9.5763 150.079 10.0435 149.503 10.0435H147.154ZM157.591 7.95652L157.751 7.95861L157.813 7.96056C157.852 7.96198 157.891 7.96376 157.93 7.96591C157.954 7.96726 157.978 7.96876 158.003 7.97041C158.037 7.97271 158.071 7.9753 158.105 7.97817L158.171 7.98418C158.203 7.98727 158.235 7.99058 158.267 7.99414C158.292 7.99698 158.318 8.00001 158.343 8.00319C158.395 8.00963 158.446 8.01671 158.497 8.02444C158.519 8.02781 158.542 8.03132 158.564 8.03494C158.596 8.04017 158.628 8.04566 158.66 8.05142C158.682 8.05532 158.703 8.05932 158.725 8.06344C158.763 8.07073 158.801 8.07841 158.839 8.08644L158.884 8.09609C158.927 8.10557 158.97 8.11547 159.013 8.12583C159.025 8.12891 159.038 8.13208 159.051 8.13529C159.101 8.14784 159.151 8.16098 159.201 8.17474L159.231 8.18318C159.278 8.19655 159.325 8.21058 159.372 8.22518L159.421 8.24038C159.452 8.25037 159.483 8.26066 159.514 8.2712C159.542 8.2805 159.569 8.2899 159.596 8.29948C159.62 8.30807 159.645 8.31689 159.669 8.32586C159.695 8.33548 159.721 8.34524 159.747 8.35517C159.763 8.36154 159.78 8.36799 159.796 8.37451C159.845 8.3938 159.894 8.4137 159.942 8.43422C160.022 8.46845 160.102 8.50442 160.18 8.54204C160.202 8.55254 160.224 8.56323 160.246 8.57404C160.271 8.58636 160.296 8.59886 160.321 8.61154C160.344 8.62335 160.367 8.63528 160.389 8.64736C160.412 8.65901 160.434 8.67078 160.455 8.68268C160.483 8.69747 160.51 8.71248 160.537 8.7277C160.578 8.75127 160.62 8.77534 160.661 8.79989C160.739 8.8467 160.813 8.89253 160.885 8.93988L160.916 8.96062C160.942 8.97792 160.968 8.99548 160.993 9.01323C161.016 9.02856 161.038 9.04403 161.06 9.05964C161.081 9.07474 161.102 9.08998 161.123 9.10536L161.188 9.15297C161.206 9.1664 161.224 9.1799 161.241 9.19351L161.249 9.19947C161.334 9.26467 161.417 9.33208 161.498 9.40162C161.509 9.41114 161.52 9.42063 161.531 9.43015C161.559 9.45518 161.588 9.48051 161.616 9.50611C161.63 9.51882 161.644 9.53167 161.658 9.54458C161.775 9.65253 161.888 9.76503 161.996 9.88183C162.008 9.89462 162.02 9.90745 162.032 9.92033C162.089 9.9836 162.146 10.0482 162.2 10.1139L162.258 10.1845C162.957 11.0476 163.421 12.1085 163.554 13.2701C163.561 13.3237 163.565 13.3787 163.565 13.4348C163.565 14.0111 163.098 14.4783 162.522 14.4783C162.516 14.4783 162.511 14.4782 162.506 14.4781L160.56 14.4777L157.557 14.4783L155.634 14.4783C155.058 14.4783 154.59 14.0111 154.59 13.4348C154.59 12.8585 155.058 12.3913 155.634 12.3913L161.179 12.3909C160.86 11.6616 160.326 11.0483 159.656 10.6317L159.639 10.621L159.565 10.5772L159.61 10.6033L159.59 10.5918C159.568 10.5787 159.546 10.5658 159.524 10.5531L159.556 10.572L159.501 10.5407L159.463 10.5193L159.48 10.5282L159.462 10.5185L159.416 10.4939C159.327 10.447 159.236 10.4035 159.144 10.3634L159.115 10.351C159.105 10.3469 159.095 10.3429 159.086 10.3389L159.071 10.3329L159.055 10.3263L159.07 10.3325L158.998 10.3039L159.055 10.3263L159.026 10.3147C159.006 10.3067 158.985 10.299 158.965 10.2914L158.959 10.2892L158.949 10.2856L158.925 10.2765L158.916 10.273L158.897 10.2667L158.851 10.2506L158.814 10.2381L158.727 10.2107L158.666 10.1929L158.636 10.1843L158.599 10.1744L158.556 10.1635L158.487 10.1465C158.448 10.1373 158.408 10.1287 158.368 10.1206L158.248 10.0984L158.181 10.0878L158.117 10.0784L158.098 10.0758L158.076 10.0727L158.027 10.067L158.022 10.0664L158.009 10.0654L157.986 10.0628L157.971 10.0617L157.965 10.0607L157.949 10.0591L157.942 10.0586L157.91 10.056L157.887 10.0539L157.877 10.0534L157.868 10.0529L157.863 10.0523L157.849 10.0513L157.86 10.0523L157.804 10.0492L157.774 10.0477L157.75 10.0466L157.741 10.0461L157.729 10.0456L157.715 10.045L157.668 10.0442C157.643 10.0437 157.617 10.0435 157.591 10.0435C155.43 10.0435 153.677 11.7954 153.677 13.9565C153.677 16.1176 155.43 17.8696 157.591 17.8696L157.681 17.8675L157.75 17.8664C157.769 17.8656 157.789 17.8647 157.808 17.8637C157.849 17.8614 157.89 17.8585 157.931 17.855L157.894 17.8576L157.956 17.8523L157.979 17.8503L158.007 17.8471L158.055 17.8424C158.058 17.8421 158.059 17.8418 158.061 17.8416L158.144 17.8308L158.167 17.8275L158.195 17.8226L158.224 17.8186L158.246 17.8151C158.328 17.8013 158.409 17.785 158.489 17.7662L158.608 17.7362L158.682 17.7151L158.748 17.696C158.774 17.6879 158.8 17.6795 158.826 17.6709L158.804 17.6776L158.83 17.6692L158.898 17.6461L158.918 17.6384L158.97 17.6199L158.984 17.6146L159.016 17.6019L159.044 17.5913L159.063 17.5834L159.137 17.5518L159.159 17.543L159.215 17.5174L159.31 17.4729L159.254 17.4997L159.32 17.4681L159.386 17.4348L159.457 17.3974L159.493 17.3765L159.606 17.312C160.123 17.0012 160.562 16.5743 160.887 16.0675C160.928 16.0033 160.977 15.9421 161.033 15.8857C161.441 15.4782 162.102 15.4782 162.509 15.8857C162.851 16.2271 162.906 16.7462 162.675 17.1452C161.926 18.3377 160.768 19.2477 159.399 19.6796C159.386 19.6831 159.374 19.687 159.361 19.6908C159.308 19.7076 159.255 19.7233 159.201 19.7383C159.196 19.7393 159.191 19.7406 159.186 19.742C159 19.7936 158.809 19.8361 158.616 19.8694C158.603 19.8716 158.59 19.8737 158.577 19.8759C158.529 19.8838 158.481 19.8912 158.432 19.8981C158.406 19.9017 158.38 19.9051 158.354 19.9085C158.322 19.9126 158.29 19.9164 158.257 19.92C158.223 19.9237 158.189 19.9272 158.154 19.9304C158.125 19.9332 158.095 19.9358 158.065 19.9381C158.036 19.9404 158.006 19.9425 157.977 19.9443L157.906 19.9484L157.836 19.9516C157.82 19.9523 157.804 19.9528 157.789 19.9533L157.769 19.9539L157.591 19.9565C154.277 19.9565 151.59 17.2702 151.59 13.9565C151.59 10.6428 154.277 7.95652 157.591 7.95652Z" fill="white"/>
<path fill-rule="evenodd" clip-rule="evenodd" d="M18.514 15.3644L20.7293 10.678L24.0702 17.7456L30.1734 4.8346C30.3173 4.53026 30.1872 4.16692 29.8829 4.02305C29.8014 3.98455 29.7125 3.96458 29.6224 3.96458H23.903L25.135 1.37979C25.5368 0.536853 26.3874 0 27.3212 0L33.04 0C34.3865 0 35.4781 1.09157 35.4781 2.4381C35.4781 2.79842 35.3982 3.15427 35.2442 3.48004L26.2933 22.4151C25.7536 23.4717 25.0116 24 24.0673 24C23.1229 24 22.3828 23.4717 21.8468 22.4151L18.514 15.3644ZM0.239925 3.48004C-0.335525 2.26267 0.184851 0.809309 1.40222 0.233859C1.72798 0.0798684 2.08383 0 2.44416 0L13.3654 0C14.7798 0 16.0674 0.815573 16.6718 2.09431L16.97 2.72519L14.7546 7.41149L13.4553 4.66266C13.2538 4.23643 12.8246 3.96458 12.3532 3.96458H5.86174C5.5251 3.96458 5.25221 4.23748 5.25221 4.57411C5.25221 4.66419 5.27218 4.75315 5.31068 4.8346L11.4138 17.7456L18.8123 2.09421C19.4167 0.815528 20.7043 0 22.1187 0L25.7771 0C24.8343 0 23.976 0.543634 23.573 1.39601L22.3588 3.96458L13.637 22.4151C13.0974 23.4717 12.3554 24 11.411 24C10.4667 24 9.72652 23.4717 9.19057 22.4151L0.239925 3.48004Z" fill="white"/>
</g>
<defs>
<clipPath id="clip0_3477_7455">
<rect width="164" height="24" fill="white"/>
</clipPath>
</defs>
</svg>
