<svg width="96" height="90" viewBox="0 0 96 90" fill="none" xmlns="http://www.w3.org/2000/svg">
<g opacity="0.2">
<g clip-path="url(#clip0_1_4710)">
<path d="M57.3455 55.026C59.0706 58.0383 60.7764 61.0163 62.481 63.9912C54.9329 69.8059 43.1894 70.5087 34.496 63.8124C24.4917 56.1005 22.8474 42.9416 28.2035 33.4692C34.3639 22.574 45.8919 20.1645 53.3143 21.9313C53.1135 22.3701 48.668 31.6502 48.668 31.6502C48.668 31.6502 48.3166 31.6734 48.1178 31.6773C45.9239 31.7708 44.2899 32.2845 42.5385 33.1956C40.617 34.2046 38.9703 35.6717 37.7424 37.4688C36.5144 39.2659 35.7427 41.3384 35.4945 43.5049C35.2355 45.7021 35.5374 47.9295 36.3718 49.9766C37.0772 51.7073 38.0751 53.2444 39.4128 54.5421C41.465 56.5348 43.907 57.7686 46.7377 58.177C49.4184 58.5642 51.9964 58.1809 54.4122 56.9594C55.3183 56.5018 56.0892 55.9966 56.9902 55.3035C57.105 55.2287 57.2069 55.1338 57.3455 55.026Z" fill="#FF492C"/>
<path d="M57.3455 55.026C59.0706 58.0383 60.7764 61.0163 62.481 63.9912C54.9329 69.8059 43.1894 70.5087 34.496 63.8124C24.4917 56.1005 22.8474 42.9416 28.2035 33.4692C34.3639 22.574 45.8919 20.1645 53.3143 21.9313C53.1135 22.3701 48.668 31.6502 48.668 31.6502C48.668 31.6502 48.3166 31.6734 48.1178 31.6773C45.9239 31.7708 44.2899 32.2845 42.5385 33.1956C40.617 34.2046 38.9703 35.6717 37.7424 37.4688C36.5144 39.2659 35.7427 41.3384 35.4945 43.5049C35.2355 45.7021 35.5374 47.9295 36.3718 49.9766C37.0772 51.7073 38.0751 53.2444 39.4128 54.5421C41.465 56.5348 43.907 57.7686 46.7377 58.177C49.4184 58.5642 51.9964 58.1809 54.4122 56.9594C55.3183 56.5018 56.0892 55.9966 56.9902 55.3035C57.105 55.2287 57.2069 55.1338 57.3455 55.026Z" fill="white"/>
<path d="M57.3568 28.608C56.9188 28.1744 56.5129 27.7743 56.1089 27.3716C55.8677 27.1316 55.6356 26.8818 55.3887 26.6476C55.3002 26.5631 55.1963 26.4475 55.1963 26.4475C55.1963 26.4475 55.2803 26.2682 55.3162 26.1946C55.7888 25.2402 56.5296 24.5426 57.4081 23.9877C58.3797 23.3693 59.5116 23.0547 60.6608 23.0836C62.1313 23.1126 63.4986 23.4811 64.6523 24.4736C65.5039 25.206 65.9406 26.1352 66.0176 27.2445C66.1458 29.1158 65.3763 30.5491 63.8481 31.5493C62.9502 32.1378 61.9819 32.5927 61.011 33.1315C60.4755 33.429 60.0176 33.6904 59.4943 34.2285C59.0338 34.7687 59.0114 35.2778 59.0114 35.2778L65.9676 35.2688V38.3862H55.2303C55.2303 38.3862 55.2303 38.1732 55.2303 38.0848C55.1892 36.5529 55.3669 35.1113 56.064 33.72C56.7053 32.4436 57.7018 31.5093 58.8992 30.7897C59.8213 30.2354 60.7923 29.7637 61.7164 29.212C62.2865 28.8719 62.6892 28.3731 62.686 27.6497C62.686 27.029 62.2371 26.4772 61.5958 26.3049C60.0836 25.8945 58.5445 26.5495 57.7442 27.9421C57.6275 28.1453 57.5082 28.3473 57.3568 28.608Z" fill="#FF492C"/>
<path d="M57.3568 28.608C56.9188 28.1744 56.5129 27.7743 56.1089 27.3716C55.8677 27.1316 55.6356 26.8818 55.3887 26.6476C55.3002 26.5631 55.1963 26.4475 55.1963 26.4475C55.1963 26.4475 55.2803 26.2682 55.3162 26.1946C55.7888 25.2402 56.5296 24.5426 57.4081 23.9877C58.3797 23.3693 59.5116 23.0547 60.6608 23.0836C62.1313 23.1126 63.4986 23.4811 64.6523 24.4736C65.5039 25.206 65.9406 26.1352 66.0176 27.2445C66.1458 29.1158 65.3763 30.5491 63.8481 31.5493C62.9502 32.1378 61.9819 32.5927 61.011 33.1315C60.4755 33.429 60.0176 33.6904 59.4943 34.2285C59.0338 34.7687 59.0114 35.2778 59.0114 35.2778L65.9676 35.2688V38.3862H55.2303C55.2303 38.3862 55.2303 38.1732 55.2303 38.0848C55.1892 36.5529 55.3669 35.1113 56.064 33.72C56.7053 32.4436 57.7018 31.5093 58.8992 30.7897C59.8213 30.2354 60.7923 29.7637 61.7164 29.212C62.2865 28.8719 62.6892 28.3731 62.686 27.6497C62.686 27.029 62.2371 26.4772 61.5958 26.3049C60.0836 25.8945 58.5445 26.5495 57.7442 27.9421C57.6275 28.1453 57.5082 28.3473 57.3568 28.608Z" fill="white"/>
<path d="M70.8108 51.7099L64.9487 41.5232H53.3482L47.4482 51.815H59.134L64.9006 61.9533L70.8108 51.7099Z" fill="#FF492C"/>
<path d="M70.8108 51.7099L64.9487 41.5232H53.3482L47.4482 51.815H59.134L64.9006 61.9533L70.8108 51.7099Z" fill="white"/>
</g>
</g>
<defs>
<clipPath id="clip0_1_4710">
<rect width="45.615" height="47.188" fill="white" transform="translate(25.1924 21.406)"/>
</clipPath>
</defs>
</svg>
