<svg width="160" height="90" viewBox="0 0 160 90" fill="none" xmlns="http://www.w3.org/2000/svg">
<g opacity="0.2">
<g clip-path="url(#clip0_1_4690)">
<path d="M116.78 52.2401H119.733V32.455H116.78V52.2401ZM143.379 39.5826L139.994 48.1599H139.892L136.379 39.5826H133.198L138.468 51.5706L135.463 58.2395H138.542L146.663 39.5831L143.379 39.5826ZM126.631 49.9927C125.665 49.9927 124.316 49.5086 124.316 48.3125C124.316 46.7855 125.996 46.2001 127.446 46.2001C128.744 46.2001 129.356 46.4796 130.144 46.8616C129.915 48.6945 128.337 49.9927 126.631 49.9927ZM126.989 39.1498C124.85 39.1498 122.636 40.0919 121.72 42.179L124.341 43.2731C124.901 42.179 125.944 41.8229 127.039 41.8229C128.566 41.8229 130.119 42.7384 130.144 44.368V44.5713C129.609 44.2659 128.463 43.8079 127.064 43.8079C124.238 43.8079 121.363 45.3601 121.363 48.2618C121.363 50.9089 123.679 52.6144 126.275 52.6144C128.259 52.6144 129.356 51.7236 130.041 50.6796H130.144V52.2077H132.996V44.6219C132.996 41.1094 130.372 39.1498 126.989 39.1498ZM108.738 41.991H104.538V35.2096H108.738C110.946 35.2096 112.199 37.037 112.199 38.6002C112.199 40.1334 110.946 41.991 108.738 41.991ZM108.662 32.4555H101.586V52.2406H104.538V44.7451H108.662C111.935 44.7451 115.152 42.3763 115.152 38.601C115.152 34.8264 111.935 32.4555 108.662 32.4555ZM70.0783 49.996C68.0382 49.996 66.3308 48.2873 66.3308 45.9426C66.3308 43.5707 68.0382 41.8379 70.0783 41.8379C72.0924 41.8379 73.6731 43.5708 73.6731 45.9426C73.6731 48.2873 72.0924 49.996 70.0783 49.996ZM73.469 40.6901H73.367C72.7043 39.8999 71.4289 39.186 69.8236 39.186C66.4576 39.186 63.3728 42.144 63.3728 45.9426C63.3728 49.7155 66.4576 52.6474 69.8236 52.6474C71.4289 52.6474 72.7043 51.9334 73.367 51.1181H73.469V52.0861C73.469 54.6621 72.0924 56.0381 69.8743 56.0381C68.0648 56.0381 66.9429 54.7381 66.4836 53.6419L63.909 54.7126C64.6477 56.4966 66.6103 58.6901 69.8744 58.6901C73.3424 58.6901 76.2744 56.65 76.2744 51.678V39.5938H73.4692L73.469 40.6901ZM78.3144 52.2395H81.2706V32.4544H78.3144V52.2395ZM85.6307 45.7127C85.5546 43.112 87.6459 41.7866 89.1494 41.7866C90.3227 41.7866 91.316 42.3732 91.6487 43.214L85.6307 45.7127ZM94.8088 43.4687C94.2481 41.9653 92.5401 39.186 89.0473 39.186C85.5793 39.186 82.6986 41.9139 82.6986 45.9168C82.6986 49.6902 85.5546 52.6476 89.3781 52.6476C92.4628 52.6476 94.2482 50.7615 94.988 49.6648L92.6933 48.1348C91.9282 49.2568 90.8834 49.9962 89.3781 49.9962C87.8747 49.9962 86.8034 49.3076 86.116 47.9563L95.1148 44.2342L94.8088 43.4687ZM23.107 41.2513V44.1067H29.9396C29.7356 45.7129 29.2002 46.8854 28.3842 47.7015C27.3896 48.6955 25.8343 49.7921 23.1068 49.7921C18.9 49.7921 15.6113 46.4014 15.6113 42.1946C15.6113 37.9879 18.9 34.5967 23.1068 34.5967C25.376 34.5967 27.0329 35.4892 28.2567 36.6366L30.2715 34.622C28.5627 32.9905 26.294 31.7413 23.1068 31.7413C17.344 31.7413 12.5 36.4325 12.5 42.1946C12.5 47.9562 17.344 52.6476 23.1068 52.6476C26.2169 52.6476 28.5628 51.6276 30.3982 49.7156C32.285 47.8288 32.8716 45.1774 32.8716 43.0355C32.8716 42.3733 32.8201 41.7614 32.7182 41.2513H23.107ZM40.6404 49.996C38.6003 49.996 36.841 48.3133 36.841 45.9168C36.841 43.4947 38.6003 41.838 40.6404 41.838C42.6797 41.838 44.439 43.4947 44.439 45.9168C44.439 48.3133 42.6797 49.996 40.6404 49.996ZM40.6404 39.186C36.917 39.186 33.8835 42.0159 33.8835 45.9168C33.8835 49.7921 36.917 52.6476 40.6404 52.6476C44.3624 52.6476 47.3965 49.7921 47.3965 45.9168C47.3965 42.0159 44.3624 39.186 40.6404 39.186ZM55.3787 49.996C53.34 49.996 51.5801 48.3133 51.5801 45.9168C51.5801 43.4947 53.3401 41.838 55.3787 41.838C57.4188 41.838 59.1775 43.4947 59.1775 45.9168C59.1775 48.3133 57.4188 49.996 55.3787 49.996ZM55.3787 39.186C51.6567 39.186 48.6232 42.0159 48.6232 45.9168C48.6232 49.7921 51.6567 52.6476 55.3787 52.6476C59.1021 52.6476 62.1356 49.7921 62.1356 45.9168C62.1356 42.0159 59.1021 39.186 55.3787 39.186Z" fill="white"/>
</g>
</g>
<defs>
<clipPath id="clip0_1_4690">
<rect width="135" height="28.4862" fill="white" transform="translate(12.5 30.7569)"/>
</clipPath>
</defs>
</svg>
