<svg width="64" height="64" viewBox="0 0 64 64" fill="none" xmlns="http://www.w3.org/2000/svg">
<path d="M0 25.6C0 16.6392 0 12.1587 1.7439 8.73615C3.27787 5.72556 5.72556 3.27787 8.73615 1.7439C12.1587 0 16.6392 0 25.6 0H38.4C47.3608 0 51.8413 0 55.2638 1.7439C58.2744 3.27787 60.7221 5.72556 62.2561 8.73615C64 12.1587 64 16.6392 64 25.6V38.4C64 47.3608 64 51.8413 62.2561 55.2638C60.7221 58.2744 58.2744 60.7221 55.2638 62.2561C51.8413 64 47.3608 64 38.4 64H25.6C16.6392 64 12.1587 64 8.73615 62.2561C5.72556 60.7221 3.27787 58.2744 1.7439 55.2638C0 51.8413 0 47.3608 0 38.4V25.6Z" fill="white"/>
<path d="M25.5996 0.5H38.4004C42.8889 0.5 46.2253 0.500866 48.8682 0.716797C51.5052 0.932261 53.4081 1.35942 55.0371 2.18945C57.9534 3.67546 60.3245 6.04656 61.8105 8.96289C62.6406 10.5919 63.0677 12.4948 63.2832 15.1318C63.4991 17.7747 63.5 21.1111 63.5 25.5996V38.4004C63.5 42.8889 63.4991 46.2253 63.2832 48.8682C63.0677 51.5052 62.6406 53.4081 61.8105 55.0371C60.3245 57.9534 57.9534 60.3245 55.0371 61.8105C53.4081 62.6406 51.5052 63.0677 48.8682 63.2832C46.2253 63.4991 42.8889 63.5 38.4004 63.5H25.5996C21.1111 63.5 17.7747 63.4991 15.1318 63.2832C12.4948 63.0677 10.5919 62.6406 8.96289 61.8105C6.04656 60.3245 3.67546 57.9534 2.18945 55.0371C1.35942 53.4081 0.932261 51.5052 0.716797 48.8682C0.500866 46.2253 0.5 42.8889 0.5 38.4004V25.5996C0.5 21.1111 0.500866 17.7747 0.716797 15.1318C0.932261 12.4948 1.35942 10.5919 2.18945 8.96289C3.67546 6.04656 6.04656 3.67546 8.96289 2.18945C10.5919 1.35942 12.4948 0.932261 15.1318 0.716797C17.7747 0.500866 21.1111 0.5 25.5996 0.5Z" stroke="#1D1D1F" stroke-opacity="0.1"/>
<g clip-path="url(#clip0_1_4018)">
<path d="M46.9998 17H16.9998C15.1665 17 13.6665 18.5 13.6665 20.3333V25.3333H16.9998V20.3333H46.9998V43.6667H35.3332V47H46.9998C48.8332 47 50.3332 45.5 50.3332 43.6667V20.3333C50.3332 18.5 48.8332 17 46.9998 17ZM13.6665 42V47H18.6665C18.6665 44.2333 16.4332 42 13.6665 42ZM13.6665 35.3333V38.6667C18.2665 38.6667 21.9998 42.4 21.9998 47H25.3332C25.3332 40.55 20.1165 35.3333 13.6665 35.3333ZM13.6665 28.6667V32C21.9498 32 28.6665 38.7167 28.6665 47H31.9998C31.9998 36.8667 23.7832 28.6667 13.6665 28.6667Z" fill="#2BC56C"/>
</g>
<defs>
<clipPath id="clip0_1_4018">
<rect width="40" height="40" fill="white" transform="translate(12 12)"/>
</clipPath>
</defs>
</svg>
