<svg width="362" height="96" viewBox="0 0 362 96" fill="none" xmlns="http://www.w3.org/2000/svg">
<path fill-rule="evenodd" clip-rule="evenodd" d="M143.009 36.5C143.893 36.5 144.61 37.2163 144.61 38.0999V58.9001C144.61 59.7837 143.893 60.5 143.01 60.5C142.489 60.5 142.026 60.2516 141.734 59.867L133.472 51.6064L134.816 50.2652C135.022 50.0591 135.297 49.9218 135.603 49.8907L135.736 49.884C136.12 49.884 136.465 50.0504 136.703 50.3151L136.704 50.3128L141.408 55.0152L141.409 38.0999C141.409 37.2163 142.125 36.5 143.009 36.5ZM122.204 36.5C123.089 36.5 123.805 37.2163 123.805 38.0999L123.804 55.0536L131.476 47.3857C131.772 47.0898 132.155 46.9341 132.542 46.9185L132.71 46.9185C133.097 46.9341 133.48 47.0898 133.776 47.3857L135.145 48.7545C134.714 48.859 134.305 49.0795 133.968 49.4162L125.166 58.2076L125.171 58.2128L123.412 59.9721C123.358 60.0263 123.301 60.0758 123.241 60.1206C122.962 60.3568 122.6 60.5 122.205 60.5C121.321 60.5 120.604 59.7837 120.604 58.9001V38.0999C120.604 37.2163 121.321 36.5 122.204 36.5ZM151.811 58.9001C151.811 59.7837 151.095 60.5 150.211 60.5C149.327 60.5 148.611 59.7837 148.611 58.9001V49.7C148.611 47.9327 150.043 46.5 151.811 46.5L152.313 46.5001C151.997 46.9536 151.811 47.5051 151.811 48.1V58.9001ZM166.014 36.5C169.66 36.5 172.616 39.4549 172.616 43.1C172.616 46.7451 169.66 49.7 166.014 49.7H153.011L153.012 48.1C153.012 47.2565 153.664 46.5655 154.492 46.5044L154.591 46.5H166.014C167.893 46.5 169.415 44.9778 169.415 43.1C169.415 41.2438 167.927 39.735 166.079 39.7006L150.211 39.7C149.327 39.7 148.611 38.9837 148.611 38.1C148.611 37.2163 149.327 36.5 150.211 36.5H166.014ZM191.635 46.899L191.82 46.9C195.576 46.9 198.622 49.9445 198.622 53.7C198.622 57.4555 195.576 60.5 191.82 60.5H176.216C175.333 60.5 174.616 59.7837 174.616 58.9C174.616 58.0163 175.333 57.3 176.216 57.3H191.82C193.787 57.3 195.385 55.7238 195.42 53.7661L195.421 53.7C195.421 50.8279 193.907 48.31 191.635 46.899ZM197.022 36.5C197.905 36.5 198.622 37.2163 198.622 38.1C198.622 38.9837 197.905 39.7 197.022 39.7H181.418C179.451 39.7 177.853 41.2762 177.818 43.2339L177.817 43.3C177.817 45.2661 179.394 46.8641 181.352 46.8994L187.419 46.9C190.005 46.9 192.254 48.3427 193.404 50.4669C192.945 50.2408 192.43 50.1104 191.886 50.1006L191.82 50.1L187.219 50.0992L181.418 50.1C177.661 50.1 174.616 47.0555 174.616 43.3C174.616 39.5445 177.661 36.5 181.418 36.5H197.022ZM225.427 36.5C232.056 36.5 237.43 41.8726 237.43 48.5C237.43 55.1274 232.056 60.5 225.427 60.5C218.799 60.5 213.425 55.1274 213.425 48.5C213.425 41.8726 218.799 36.5 225.427 36.5ZM225.427 39.7C220.566 39.7 216.626 43.6399 216.626 48.5C216.626 53.3601 220.566 57.3 225.427 57.3C230.289 57.3 234.229 53.3601 234.229 48.5C234.229 43.6399 230.289 39.7 225.427 39.7ZM251.033 36.5C251.917 36.5 252.633 37.2163 252.633 38.1C252.633 38.9837 251.917 39.7 251.033 39.7H248.633C246.008 39.7 243.875 41.8063 243.832 44.4206L243.832 44.5L243.831 46.2992L251.034 46.3C251.917 46.3 252.633 47.0163 252.633 47.8999C252.633 48.7837 251.917 49.5 251.034 49.5L243.831 49.4992L243.832 58.8996C243.832 59.7835 243.115 60.5 242.231 60.5C241.347 60.5 240.631 59.7835 240.631 58.8996V44.5C240.631 40.0817 244.213 36.5 248.633 36.5H251.033ZM264.636 36.5C265.52 36.5 266.236 37.2163 266.236 38.1C266.236 38.9837 265.52 39.7 264.636 39.7H262.236C259.611 39.7 257.478 41.8063 257.435 44.4206L257.435 44.5L257.434 46.2992L264.637 46.3C265.52 46.3 266.236 47.0163 266.236 47.8999C266.236 48.7837 265.52 49.5 264.637 49.5L257.434 49.4992L257.435 58.8996C257.435 59.7835 256.718 60.5 255.834 60.5C254.95 60.5 254.234 59.7835 254.234 58.8996V44.5C254.234 40.0817 257.816 36.5 262.236 36.5H264.636ZM270.237 41.9H270.238C271.121 41.9 271.838 42.6163 271.838 43.4999V58.9001C271.838 59.7837 271.121 60.5 270.238 60.5H270.237C269.353 60.5 268.637 59.7837 268.637 58.9001V43.4999C268.637 42.6163 269.353 41.9 270.237 41.9ZM270.237 36.5H270.238C271.121 36.5 271.838 37.2163 271.838 38.0999C271.838 38.9836 271.121 39.7 270.238 39.7H270.237C269.353 39.7 268.637 38.9837 268.637 38.1001C268.637 37.2164 269.353 36.5 270.237 36.5ZM283.44 45.1C280.159 45.1 277.493 47.7328 277.44 51.0008L277.439 51.1C277.439 54.3806 280.072 57.0462 283.341 57.0992L283.44 57.1H287.041C287.925 57.1 288.641 57.8163 288.641 58.7C288.641 59.5837 287.925 60.3 287.041 60.3H283.44C278.358 60.3 274.238 56.181 274.238 51.1C274.238 46.019 278.358 41.9 283.44 41.9H287.041C287.925 41.9 288.641 42.6163 288.641 43.5C288.641 44.3837 287.925 45.1 287.041 45.1H283.44ZM299.444 41.9L299.689 41.9032L299.784 41.9062C299.844 41.9084 299.904 41.9111 299.963 41.9144C300 41.9165 300.038 41.9188 300.075 41.9213C300.127 41.9248 300.179 41.9288 300.231 41.9332L300.333 41.9424C300.383 41.9472 300.431 41.9522 300.48 41.9577C300.519 41.962 300.558 41.9667 300.597 41.9716C300.676 41.9814 300.755 41.9923 300.833 42.0041C300.867 42.0093 300.901 42.0147 300.935 42.0202C300.985 42.0283 301.034 42.0367 301.083 42.0455C301.116 42.0515 301.149 42.0576 301.182 42.0639C301.241 42.0751 301.299 42.0869 301.357 42.0992L301.426 42.114C301.492 42.1285 301.558 42.1437 301.623 42.1596C301.643 42.1643 301.663 42.1692 301.682 42.1741C301.759 42.1933 301.836 42.2135 301.912 42.2346L301.958 42.2475C302.03 42.268 302.103 42.2896 302.175 42.3119L302.249 42.3352C302.297 42.3506 302.345 42.3663 302.393 42.3825C302.435 42.3968 302.476 42.4112 302.518 42.4259C302.555 42.439 302.592 42.4526 302.63 42.4663C302.67 42.4811 302.709 42.496 302.749 42.5113C302.774 42.521 302.8 42.5309 302.825 42.5409C302.9 42.5705 302.974 42.601 303.048 42.6325C303.171 42.685 303.293 42.7401 303.414 42.7978C303.447 42.8139 303.481 42.8303 303.514 42.8469C303.553 42.8657 303.591 42.8849 303.629 42.9044C303.664 42.9225 303.7 42.9408 303.735 42.9593C303.768 42.9772 303.802 42.9952 303.836 43.0134C303.877 43.0361 303.919 43.0591 303.96 43.0825C304.024 43.1186 304.088 43.1555 304.151 43.1932C304.271 43.2649 304.383 43.3352 304.494 43.4078L304.542 43.4396C304.581 43.4661 304.621 43.4931 304.661 43.5203C304.695 43.5438 304.729 43.5675 304.762 43.5915C304.795 43.6146 304.828 43.638 304.86 43.6616L304.959 43.7346C304.986 43.7551 305.013 43.7759 305.041 43.7967L305.053 43.8059C305.182 43.9058 305.31 44.0092 305.434 44.1158C305.451 44.1304 305.468 44.145 305.484 44.1596C305.528 44.1979 305.572 44.2368 305.616 44.276C305.637 44.2955 305.659 44.3152 305.68 44.335C305.86 44.5006 306.033 44.673 306.198 44.8521C306.217 44.8718 306.235 44.8914 306.253 44.9112C306.341 45.0082 306.427 45.1072 306.511 45.208L306.6 45.3163C307.672 46.6396 308.383 48.2664 308.586 50.0476C308.598 50.1297 308.604 50.2141 308.604 50.3C308.604 51.1837 307.888 51.9 307.004 51.9C306.996 51.9 306.988 51.8999 306.98 51.8998L303.995 51.8992L299.391 51.9001L296.443 51.9C295.559 51.9 294.843 51.1837 294.843 50.3C294.843 49.4163 295.559 48.7 296.443 48.7L304.945 48.6993C304.457 47.5812 303.637 46.6408 302.61 46.0019L302.583 45.9856L302.471 45.9184L302.539 45.9584L302.509 45.9407C302.476 45.9206 302.442 45.9009 302.407 45.8814L302.457 45.9104L302.373 45.8624L302.314 45.8296L302.339 45.8432L302.312 45.8284L302.242 45.7906C302.105 45.7188 301.966 45.652 301.824 45.5905L301.78 45.5715C301.765 45.5653 301.75 45.5591 301.736 45.553L301.713 45.5438L301.688 45.5336L301.711 45.5432L301.601 45.4993L301.689 45.5336L301.643 45.5158C301.613 45.5037 301.582 45.4918 301.551 45.4801L301.541 45.4768L301.526 45.4712L301.489 45.4573L301.475 45.452L301.447 45.4423L301.375 45.4175L301.319 45.3984L301.185 45.3564L301.092 45.3291L301.046 45.316L300.989 45.3008L300.923 45.284L300.818 45.258C300.757 45.2439 300.697 45.2306 300.636 45.2183L300.451 45.1842L300.348 45.168L300.25 45.1536L300.221 45.1496L300.187 45.1448L300.112 45.136L300.104 45.1352L300.085 45.1336L300.049 45.1296L300.026 45.1279L300.018 45.1264L299.992 45.124L299.982 45.1232L299.933 45.1192L299.897 45.116L299.882 45.1152L299.869 45.1144L299.86 45.1136L299.839 45.112L299.856 45.1136L299.771 45.1088L299.724 45.1064L299.687 45.1048L299.674 45.104L299.655 45.1032L299.633 45.1024L299.562 45.1011C299.523 45.1004 299.483 45.1 299.444 45.1C296.129 45.1 293.442 47.7863 293.442 51.1C293.442 54.4137 296.129 57.1 299.444 57.1L299.582 57.0968L299.687 57.0952C299.717 57.094 299.746 57.0926 299.776 57.091C299.839 57.0875 299.902 57.0831 299.965 57.0777L299.908 57.0816L300.003 57.0736L300.039 57.0704L300.081 57.0656L300.155 57.0584C300.159 57.0578 300.162 57.0575 300.165 57.0571L300.292 57.0405L300.327 57.0356L300.369 57.028L300.415 57.0219L300.447 57.0165C300.573 56.9953 300.697 56.9703 300.82 56.9415L301.003 56.8954L301.117 56.8632L301.217 56.8338C301.257 56.8214 301.297 56.8086 301.337 56.7954L301.303 56.8056L301.343 56.7928L301.448 56.7573L301.478 56.7456L301.558 56.7172L301.579 56.7091L301.628 56.6896L301.671 56.6733L301.701 56.6612L301.814 56.6128L301.848 56.5993L301.934 56.56L302.08 56.4919L301.994 56.5328L302.095 56.4845L302.196 56.4334L302.304 56.376L302.359 56.344L302.533 56.2451C303.325 55.7684 303.999 55.114 304.498 54.3369C304.561 54.2384 304.635 54.1445 304.722 54.058C305.347 53.4332 306.36 53.4332 306.985 54.058C307.508 54.5815 307.593 55.3775 307.24 55.9894C306.09 57.8178 304.315 59.2131 302.215 59.8754C302.196 59.8808 302.177 59.8867 302.158 59.8925C302.077 59.9183 301.994 59.9424 301.912 59.9653C301.905 59.9669 301.897 59.9689 301.89 59.971C301.603 60.0502 301.312 60.1154 301.015 60.1664C300.995 60.1697 300.975 60.1731 300.956 60.1763C300.882 60.1886 300.808 60.1999 300.733 60.2104C300.694 60.2159 300.654 60.2212 300.614 60.2263C300.564 60.2326 300.515 60.2385 300.465 60.2439C300.413 60.2497 300.36 60.2551 300.307 60.26C300.262 60.2643 300.216 60.2682 300.171 60.2717C300.125 60.2753 300.08 60.2785 300.035 60.2813L299.927 60.2875L299.819 60.2925C299.795 60.2935 299.771 60.2943 299.747 60.2951L299.717 60.296L299.444 60.3C294.362 60.3 290.242 56.181 290.242 51.1C290.242 46.019 294.362 41.9 299.444 41.9Z" fill="white"/>
<path fill-rule="evenodd" clip-rule="evenodd" d="M81.7627 53.0467L85.0858 46.017L90.0971 56.6184L99.2519 37.2519C99.4677 36.7954 99.2726 36.2504 98.8161 36.0346C98.6939 35.9768 98.5605 35.9469 98.4253 35.9469H89.8462L91.6943 32.0697C92.2969 30.8053 93.5729 30 94.9736 30L103.552 30C105.572 30 107.209 31.6374 107.209 33.6571C107.209 34.1976 107.089 34.7314 106.858 35.2201L93.4317 63.6227C92.6222 65.2076 91.5092 66 90.0927 66C88.6761 66 87.5659 65.2076 86.762 63.6227L81.7627 53.0467ZM54.3516 35.2201C53.4885 33.394 54.269 31.214 56.0951 30.3508C56.5837 30.1198 57.1175 30 57.658 30H74.0399C76.1615 30 78.0928 31.2234 78.9995 33.1415L79.4468 34.0878L76.1237 41.1172L74.1747 36.994C73.8724 36.3546 73.2287 35.9469 72.5215 35.9469H62.7844C62.2794 35.9469 61.8701 36.3562 61.8701 36.8612C61.8701 36.9963 61.9 37.1297 61.9578 37.2519L71.1124 56.6184L82.2102 33.1413C83.1169 31.2233 85.0482 30 87.1697 30L92.6574 30C91.2431 30 89.9557 30.8155 89.3513 32.094L87.53 35.9469L74.4473 63.6227C73.6378 65.2076 72.5248 66 71.1083 66C69.6918 66 68.5815 65.2076 67.7776 63.6227L54.3516 35.2201Z" fill="white"/>
</svg>
