<svg width="100" height="36" viewBox="0 0 100 36" fill="none" xmlns="http://www.w3.org/2000/svg">
<path d="M19.9269 16.964V14.2066H29.1488C29.2504 14.7652 29.3011 15.3288 29.2961 15.8976C29.2961 17.9644 28.7324 20.5238 26.9093 22.3418C25.1371 24.1852 22.8773 25.1703 19.8761 25.1703C14.3206 25.1703 9.64868 20.6457 9.64868 15.0851C9.64868 9.52451 14.3206 4.99988 19.8761 4.99988C22.9535 4.99988 25.1371 6.2034 26.7875 7.77763L24.8476 9.72256C23.6644 8.61552 22.0699 7.75224 19.8812 7.75224C15.8237 7.75224 12.6499 11.0226 12.6499 15.0851C12.6499 19.1476 15.8237 22.418 19.8761 22.418C22.5066 22.418 24.0097 21.3617 24.9644 20.4019C25.7464 19.6199 26.2593 18.4976 26.4625 16.9691L19.9269 16.964Z" fill="#4285F4"/>
<path d="M43.3472 18.6751C43.3472 22.4177 40.4222 25.1701 36.8319 25.1701C33.2417 25.1701 30.3167 22.4177 30.3167 18.6751C30.3167 14.9122 33.2417 12.1802 36.8319 12.1802C40.4222 12.1802 43.3523 14.9122 43.3472 18.6751ZM40.4984 18.6751C40.4984 16.3392 38.8022 14.7396 36.8319 14.7396C34.8616 14.7396 33.1655 16.3392 33.1655 18.6751C33.1655 20.9857 34.8616 22.6107 36.8319 22.6107C38.8022 22.6107 40.4984 20.9857 40.4984 18.6751Z" fill="#EA4335"/>
<path d="M57.5659 18.6751C57.5659 22.4177 54.6409 25.1701 51.0506 25.1701C47.4604 25.1701 44.5303 22.4177 44.5303 18.6751C44.5303 14.9122 47.4553 12.1802 51.0455 12.1802C54.6358 12.1802 57.5659 14.9122 57.5659 18.6751ZM54.712 18.6751C54.712 16.3392 53.0159 14.7396 51.0455 14.7396C49.0752 14.7396 47.3791 16.3392 47.3791 18.6751C47.3791 20.9857 49.0752 22.6107 51.0455 22.6107C53.0159 22.6107 54.712 20.9857 54.712 18.6751Z" fill="#FBBC04"/>
<path d="M71.1905 12.5762V24.2357C71.1905 29.0345 68.362 30.9998 65.0155 30.9998C61.867 30.9998 59.9729 28.8822 59.2619 27.1607L61.7451 26.1247C62.1869 27.181 63.2686 28.4353 65.0155 28.4353C67.1534 28.4353 68.4838 27.1048 68.4838 24.6216V23.6872H68.3874C67.7475 24.4743 66.5186 25.165 64.9698 25.165C61.7248 25.165 58.749 22.3364 58.749 18.6954C58.749 15.029 61.7248 12.175 64.9698 12.175C66.5186 12.175 67.7475 12.8657 68.3874 13.6274H68.4838V12.5711H71.1905V12.5762ZM68.6819 18.7005C68.6819 16.4102 67.1584 14.7395 65.2135 14.7395C63.2483 14.7395 61.5979 16.4102 61.5979 18.7005C61.5979 20.9653 63.2432 22.6107 65.2135 22.6107C67.1584 22.6107 68.6819 20.9653 68.6819 18.7005Z" fill="#4285F4"/>
<path d="M73.1711 5.75116H76.0251V24.7739H73.1711V5.75116Z" fill="#34A853"/>
<path d="M87.0395 20.8182L89.2535 22.296C88.5426 23.3522 86.8211 25.1753 83.8453 25.1753C80.1586 25.1753 77.4011 22.3214 77.4011 18.6803C77.4011 14.8209 80.1789 12.1854 83.5254 12.1854C86.8922 12.1854 88.5426 14.8666 89.0809 16.319L89.3754 17.0553L80.6918 20.6456C81.357 21.9507 82.3879 22.6159 83.8402 22.6159C85.2926 22.6159 86.2981 21.8999 87.0395 20.8182ZM80.2246 18.4823L86.0289 16.0702C85.709 15.2576 84.7492 14.694 83.6168 14.694C82.1695 14.694 80.1535 15.9737 80.2246 18.4823Z" fill="#EA4335"/>
</svg>
