<svg width="220" height="90" viewBox="0 0 220 90" fill="none" xmlns="http://www.w3.org/2000/svg">
<g opacity="0.2">
<path d="M41.459 32C45.0309 32.0001 47.9227 34.892 47.9268 38.4639V57.5361C47.9267 61.1081 45.0308 64 41.4629 64H22.3867C18.8148 63.9999 15.9229 61.108 15.9229 57.54V38.4639C15.9229 34.892 18.8148 32.0001 22.3867 32H41.459ZM26.1709 54.9082C25.415 53.9963 24.459 53.7162 23.2832 54.0801L22.2432 55.8799C21.8432 56.5798 22.0786 57.472 22.7783 57.8721C23.4783 58.2721 24.3705 58.0359 24.7705 57.3359L26.1709 54.9082ZM33.9346 43.084C33.0746 43.8001 32.2031 45.9118 33.4229 48.0156C34.6148 50.0836 36.4108 53.188 38.8027 57.3359C39.2107 58.0359 40.0949 58.2721 40.7949 57.8721C41.4949 57.4641 41.731 56.5799 41.3311 55.8799L39.9111 53.416H42.0146C42.8226 53.416 43.4707 52.768 43.4707 51.96C43.4707 51.152 42.8226 50.5039 42.0146 50.5039H38.2266C36.3186 47.2 34.8906 44.724 33.9346 43.084ZM31.1504 38.2275C30.7423 37.528 29.859 37.2926 29.1592 37.6924C28.4592 38.1003 28.2232 38.9836 28.623 39.6836L30.1064 42.2598L25.3545 50.4961H21.6426C20.8347 50.4962 20.1865 51.1442 20.1865 51.9521C20.1866 52.76 20.8347 53.4081 21.6426 53.4082H34.8828C35.5188 52.2162 34.6984 50.4961 33.2344 50.4961H28.7188L34.9629 39.6885C35.3629 38.9885 35.1267 38.0963 34.4268 37.6963C33.7268 37.2963 32.8346 37.5324 32.4346 38.2324L31.7871 39.3516L31.1504 38.2275Z" fill="url(#paint0_linear_1_4727)"/>
<path d="M41.459 32C45.0309 32.0001 47.9227 34.892 47.9268 38.4639V57.5361C47.9267 61.1081 45.0308 64 41.4629 64H22.3867C18.8148 63.9999 15.9229 61.108 15.9229 57.54V38.4639C15.9229 34.892 18.8148 32.0001 22.3867 32H41.459ZM26.1709 54.9082C25.415 53.9963 24.459 53.7162 23.2832 54.0801L22.2432 55.8799C21.8432 56.5798 22.0786 57.472 22.7783 57.8721C23.4783 58.2721 24.3705 58.0359 24.7705 57.3359L26.1709 54.9082ZM33.9346 43.084C33.0746 43.8001 32.2031 45.9118 33.4229 48.0156C34.6148 50.0836 36.4108 53.188 38.8027 57.3359C39.2107 58.0359 40.0949 58.2721 40.7949 57.8721C41.4949 57.4641 41.731 56.5799 41.3311 55.8799L39.9111 53.416H42.0146C42.8226 53.416 43.4707 52.768 43.4707 51.96C43.4707 51.152 42.8226 50.5039 42.0146 50.5039H38.2266C36.3186 47.2 34.8906 44.724 33.9346 43.084ZM31.1504 38.2275C30.7423 37.528 29.859 37.2926 29.1592 37.6924C28.4592 38.1003 28.2232 38.9836 28.623 39.6836L30.1064 42.2598L25.3545 50.4961H21.6426C20.8347 50.4962 20.1865 51.1442 20.1865 51.9521C20.1866 52.76 20.8347 53.4081 21.6426 53.4082H34.8828C35.5188 52.2162 34.6984 50.4961 33.2344 50.4961H28.7188L34.9629 39.6885C35.3629 38.9885 35.1267 38.0963 34.4268 37.6963C33.7268 37.2963 32.8346 37.5324 32.4346 38.2324L31.7871 39.3516L31.1504 38.2275Z" fill="white"/>
<path d="M78.6427 52.6145H70.1578L68.1202 58.6311H64.5261L72.5631 36.3711H76.297L84.3338 58.6311H80.6785L78.6427 52.6145ZM71.0365 49.838H77.7622L74.4467 40.0736H74.3538L71.0365 49.838ZM101.69 50.5174C101.69 55.5606 98.991 58.8009 94.9176 58.8009C93.8857 58.8549 92.8594 58.6172 91.9563 58.115C91.0532 57.6128 90.3098 56.8665 89.8111 55.9614H89.734V64H86.4027V42.4018H89.6274V45.1012H89.6887C90.2102 44.2005 90.9662 43.458 91.8762 42.9528C92.7861 42.4476 93.816 42.1985 94.8563 42.232C98.9752 42.232 101.69 45.4882 101.69 50.5174ZM98.2663 50.5174C98.2663 47.2317 96.5684 45.0714 93.9776 45.0714C91.4321 45.0714 89.7202 47.277 89.7202 50.5172C89.7202 53.7874 91.4321 55.9774 93.9776 55.9774C96.5684 55.9774 98.2663 53.8331 98.2663 50.5174ZM119.553 50.5174C119.553 55.5606 116.854 58.8009 112.78 58.8009C111.748 58.8548 110.722 58.6171 109.819 58.115C108.916 57.6128 108.172 56.8665 107.674 55.9614H107.597V64H104.265V42.4018H107.49V45.1012H107.551C108.073 44.2005 108.829 43.458 109.739 42.9528C110.649 42.4476 111.679 42.1985 112.719 42.232C116.838 42.232 119.553 45.4882 119.553 50.5174ZM116.129 50.5174C116.129 47.2317 114.431 45.0714 111.84 45.0714C109.295 45.0714 107.583 47.277 107.583 50.5172C107.583 53.7874 109.295 55.9774 111.84 55.9774C114.431 55.9774 116.129 53.8331 116.129 50.5174ZM131.359 52.429C131.606 54.6364 133.75 56.0858 136.68 56.0858C139.488 56.0858 141.508 54.6364 141.508 52.6459C141.508 50.9181 140.29 49.8836 137.405 49.1746L134.52 48.4796C130.433 47.4923 128.535 45.5807 128.535 42.4787C128.535 38.6379 131.882 36 136.635 36C141.338 36 144.563 38.6379 144.672 42.4787H141.309C141.107 40.2573 139.271 38.9163 136.587 38.9163C133.904 38.9163 132.068 40.2731 132.068 42.2476C132.068 43.8215 133.241 44.7475 136.11 45.4563L138.562 46.0586C143.129 47.1386 145.027 48.9733 145.027 52.2291C145.027 56.3938 141.71 59.0022 136.433 59.0022C131.497 59.0022 128.164 56.4549 127.949 52.4288L131.359 52.429ZM152.216 38.5612V42.4018H155.303V45.0399H152.216V53.9869C152.216 55.3769 152.834 56.0245 154.191 56.0245C154.558 56.0181 154.923 55.9924 155.287 55.9475V58.57C154.677 58.6839 154.057 58.7354 153.437 58.7238C150.151 58.7238 148.869 57.4898 148.869 54.3422V45.0399H146.51V42.4018H148.869V38.5612H152.216ZM157.09 50.5174C157.09 45.411 160.097 42.2023 164.787 42.2023C169.493 42.2023 172.486 45.411 172.486 50.5174C172.486 55.6377 169.508 58.8324 164.787 58.8324C160.068 58.8324 157.09 55.6377 157.09 50.5174ZM169.092 50.5174C169.092 47.0146 167.487 44.947 164.787 44.947C162.088 44.947 160.484 47.0302 160.484 50.5174C160.484 54.0343 162.088 56.0858 164.787 56.0858C167.487 56.0858 169.092 54.0343 169.092 50.5174ZM175.233 42.4018H178.41V45.1641H178.487C178.702 44.3014 179.207 43.5389 179.918 43.005C180.629 42.471 181.502 42.1981 182.391 42.232C182.775 42.2307 183.158 42.2723 183.532 42.3562V45.4723C183.048 45.3242 182.542 45.2562 182.035 45.271C181.551 45.2513 181.069 45.3366 180.621 45.5211C180.173 45.7055 179.771 45.9847 179.441 46.3394C179.111 46.6941 178.862 47.116 178.711 47.5761C178.559 48.0362 178.509 48.5236 178.564 49.0049V58.6311H175.233V42.4018ZM198.891 53.8643C198.443 56.8106 195.574 58.8324 191.903 58.8324C187.182 58.8324 184.252 55.6693 184.252 50.5943C184.252 45.5038 187.198 42.2023 191.763 42.2023C196.253 42.2023 199.077 45.2867 199.077 50.2075V51.3488H187.614V51.5501C187.561 52.1474 187.636 52.7491 187.834 53.3153C188.031 53.8814 188.347 54.3991 188.76 54.8339C189.173 55.2687 189.673 55.6107 190.229 55.8371C190.784 56.0635 191.381 56.1692 191.98 56.1471C192.767 56.2209 193.557 56.0386 194.233 55.6273C194.908 55.216 195.433 54.5977 195.728 53.8643H198.891ZM187.63 49.0206H195.744C195.774 48.4836 195.692 47.9461 195.505 47.442C195.317 46.938 195.027 46.4781 194.653 46.0913C194.28 45.7045 193.83 45.3992 193.333 45.1944C192.835 44.9897 192.301 44.89 191.763 44.9015C191.221 44.8983 190.683 45.0025 190.181 45.2082C189.679 45.4139 189.223 45.717 188.838 46.0999C188.454 46.4829 188.15 46.9382 187.942 47.4395C187.735 47.9408 187.629 48.4781 187.63 49.0206Z" fill="white"/>
</g>
<defs>
<linearGradient id="paint0_linear_1_4727" x1="31.9229" y1="32" x2="31.9229" y2="64" gradientUnits="userSpaceOnUse">
<stop stop-color="#0ED4FC"/>
<stop offset="1" stop-color="#0C57EF"/>
</linearGradient>
</defs>
</svg>
