<svg width="192" height="60" viewBox="0 0 192 60" fill="none" xmlns="http://www.w3.org/2000/svg">
<path d="M180.279 0.000194999H11.7274C11.2764 0.000194999 10.8308 0.000194999 10.3809 0.00319499C10.0044 0.00619498 9.63083 0.01491 9.25065 0.0222449C8.42474 0.0340976 7.60077 0.122709 6.7859 0.287309C5.97218 0.455492 5.18395 0.772566 4.44787 1.22781C3.71268 1.6869 3.04093 2.28344 2.45696 2.99579C1.86994 3.70614 1.3806 4.5272 1.00778 5.42742C0.63393 6.32584 0.374701 7.28858 0.239046 8.28239C0.102102 9.27494 0.0284105 10.2789 0.0186341 11.2854C0.00721996 11.7453 0.00601459 12.2067 0 12.6667V47.3379C0.00601459 47.8037 0.00721996 48.2549 0.0186218 48.7208C0.0284012 49.7272 0.102092 50.7311 0.239034 51.7236C0.374314 52.718 0.633559 53.6813 1.00777 54.5801C1.38043 55.4774 1.86983 56.2951 2.45696 57.0015C3.03871 57.717 3.7109 58.314 4.44787 58.7696C5.18394 59.226 5.97209 59.545 6.7859 59.7158C7.60091 59.879 8.4248 59.9677 9.25065 59.9809C9.63083 59.9911 10.0044 59.997 10.3809 59.997C10.8308 60 11.2764 60 11.7274 60H180.279C180.721 60 181.17 60 181.612 59.997C181.987 59.997 182.372 59.9911 182.746 59.9809C183.571 59.9684 184.393 59.8797 185.206 59.7158C186.023 59.5438 186.814 59.2249 187.553 58.7696C188.29 58.3137 188.961 57.7168 189.543 57.0015C190.128 56.2923 190.619 55.4752 190.996 54.5801C191.367 53.6807 191.624 52.7174 191.757 51.7236C191.894 50.731 191.971 49.7273 191.986 48.7208C191.99 48.2549 191.99 47.8037 191.99 47.3379C192 46.793 192 46.251 192 45.6972V14.3043C192 13.755 192 13.2101 191.99 12.6667C191.99 12.2067 191.99 11.7453 191.986 11.2853C191.971 10.2788 191.895 9.27502 191.757 8.28233C191.624 7.28909 191.367 6.32643 190.996 5.42736C190.237 3.62298 189.033 2.15423 187.553 1.22767C186.814 0.773544 186.023 0.456554 185.206 0.287174C184.393 0.121849 183.571 0.0332065 182.746 0.0220349C182.372 0.014715 181.987 0.00592498 181.612 0.00299999C181.17 0 180.721 0.000194999 180.279 0.000194999Z" fill="black"/>
<path d="M40.192 29.6758C40.1485 24.8413 44.1505 22.4893 44.3335 22.3798C42.067 19.0753 38.554 18.6238 37.3195 18.5878C34.369 18.2773 31.507 20.3533 30.004 20.3533C28.471 20.3533 26.1565 18.6178 23.662 18.6688C20.452 18.7183 17.449 20.5768 15.802 23.4628C12.403 29.3473 14.938 37.9948 18.1945 42.7513C19.8235 45.0808 21.727 47.6818 24.2185 47.5903C26.656 47.4898 27.5665 46.0363 30.508 46.0363C33.4225 46.0363 34.2775 47.5903 36.8185 47.5318C39.4345 47.4898 41.0815 45.1918 42.6535 42.8413C44.536 40.1713 45.292 37.5418 45.322 37.4068C45.2605 37.3858 40.2415 35.4703 40.192 29.6758Z" fill="white"/>
<path d="M35.3921 15.4592C36.7031 13.8197 37.6001 11.5892 37.3511 9.32568C35.4536 9.40968 33.0806 10.6382 31.7141 12.2417C30.5051 13.6547 29.4251 15.9707 29.7041 18.1487C31.8356 18.3077 34.0241 17.0732 35.3921 15.4592Z" fill="white"/>
<path d="M75.4675 47.2555H72.061L70.195 41.392H63.709L61.9315 47.2555H58.615L65.041 27.2935H69.01L75.4675 47.2555ZM69.6325 38.932L67.945 33.7195C67.7665 33.187 67.432 31.933 66.9385 29.959H66.8785C66.682 30.808 66.3655 32.062 65.9305 33.7195L64.273 38.932H69.6325Z" fill="white"/>
<path d="M91.993 39.8819C91.993 42.3299 91.3315 44.2649 90.0085 45.6854C88.8235 46.9499 87.352 47.5814 85.5955 47.5814C83.6995 47.5814 82.3375 46.9004 81.508 45.5384H81.448V53.1209H78.25V37.6004C78.25 36.0614 78.2095 34.4819 78.1315 32.8619H80.944L81.1225 35.1434H81.1825C82.249 33.4244 83.8675 32.5664 86.0395 32.5664C87.7375 32.5664 89.155 33.2369 90.289 34.5794C91.426 35.9234 91.993 37.6904 91.993 39.8819ZM88.735 39.9989C88.735 38.5979 88.42 37.4429 87.787 36.5339C87.0955 35.5859 86.167 35.1119 85.003 35.1119C84.214 35.1119 83.497 35.3759 82.8565 35.8964C82.2145 36.4214 81.7945 37.1069 81.598 37.9559C81.499 38.3519 81.4495 38.6759 81.4495 38.9309V41.3309C81.4495 42.3779 81.7705 43.2614 82.4125 43.9829C83.0545 44.7044 83.8885 45.0644 84.9145 45.0644C86.119 45.0644 87.0565 44.5994 87.727 43.6724C88.399 42.7439 88.735 41.5199 88.735 39.9989Z" fill="white"/>
<path d="M108.548 39.8819C108.548 42.3299 107.887 44.2649 106.562 45.6854C105.379 46.9499 103.907 47.5814 102.151 47.5814C100.255 47.5814 98.893 46.9004 98.065 45.5384H98.005V53.1209H94.807V37.6004C94.807 36.0614 94.7665 34.4819 94.6885 32.8619H97.501L97.6795 35.1434H97.7395C98.8045 33.4244 100.423 32.5664 102.596 32.5664C104.293 32.5664 105.71 33.2369 106.847 34.5794C107.98 35.9234 108.548 37.6904 108.548 39.8819ZM105.29 39.9989C105.29 38.5979 104.974 37.4429 104.341 36.5339C103.649 35.5859 102.724 35.1119 101.558 35.1119C100.768 35.1119 100.052 35.3759 99.4105 35.8964C98.7685 36.4214 98.35 37.1069 98.1535 37.9559C98.056 38.3519 98.005 38.6759 98.005 38.9309V41.3309C98.005 42.3779 98.326 43.2614 98.965 43.9829C99.607 44.7029 100.441 45.0644 101.47 45.0644C102.674 45.0644 103.612 44.5994 104.282 43.6724C104.954 42.7439 105.29 41.5199 105.29 39.9989Z" fill="white"/>
<path d="M127.058 41.658C127.058 43.356 126.469 44.7375 125.285 45.804C123.985 46.9695 122.174 47.5515 119.848 47.5515C117.7 47.5515 115.978 47.1375 114.674 46.308L115.415 43.6425C116.819 44.4915 118.36 44.9175 120.038 44.9175C121.243 44.9175 122.18 44.6445 122.854 44.1015C123.524 43.5585 123.859 42.8295 123.859 41.9205C123.859 41.1105 123.583 40.428 123.029 39.8745C122.479 39.321 121.559 38.8065 120.275 38.331C116.78 37.0275 115.034 35.118 115.034 32.607C115.034 30.966 115.646 29.6205 116.872 28.5735C118.093 27.525 119.722 27.0015 121.759 27.0015C123.575 27.0015 125.084 27.318 126.289 27.9495L125.489 30.5565C124.364 29.9445 123.092 29.6385 121.669 29.6385C120.544 29.6385 119.665 29.916 119.035 30.468C118.502 30.9615 118.235 31.563 118.235 32.2755C118.235 33.0645 118.54 33.717 119.152 34.23C119.684 34.704 120.652 35.217 122.056 35.7705C123.773 36.462 125.035 37.2705 125.846 38.1975C126.655 39.1215 127.058 40.278 127.058 41.658Z" fill="white"/>
<path d="M137.632 35.2619H134.107V42.2504C134.107 44.0279 134.728 44.9159 135.973 44.9159C136.544 44.9159 137.018 44.8664 137.393 44.7674L137.482 47.1959C136.852 47.4314 136.022 47.5499 134.995 47.5499C133.732 47.5499 132.745 47.1644 132.032 46.3949C131.323 45.6239 130.966 44.3309 130.966 42.5144V35.2589H128.866V32.8589H130.966V30.2234L134.107 29.2754V32.8589H137.632V35.2619Z" fill="white"/>
<path d="M153.536 39.9404C153.536 42.1529 152.903 43.9694 151.64 45.3899C150.316 46.8524 148.558 47.5814 146.366 47.5814C144.254 47.5814 142.573 46.8809 141.319 45.4799C140.065 44.0789 139.438 42.3104 139.438 40.1789C139.438 37.9484 140.083 36.1214 141.377 34.7009C142.669 33.2789 144.412 32.5679 146.603 32.5679C148.715 32.5679 150.415 33.2684 151.697 34.6709C152.924 36.0314 153.536 37.7879 153.536 39.9404ZM150.218 40.0439C150.218 38.7164 149.935 37.5779 149.36 36.6284C148.69 35.4794 147.731 34.9064 146.489 34.9064C145.204 34.9064 144.227 35.4809 143.557 36.6284C142.982 37.5794 142.699 38.7359 142.699 40.1039C142.699 41.4314 142.982 42.5699 143.557 43.5179C144.248 44.6669 145.214 45.2399 146.461 45.2399C147.682 45.2399 148.64 44.6549 149.332 43.4879C149.921 42.5204 150.218 41.3699 150.218 40.0439Z" fill="white"/>
<path d="M163.931 35.6744C163.615 35.6159 163.277 35.5859 162.923 35.5859C161.798 35.5859 160.928 36.0104 160.316 36.8609C159.784 37.6109 159.517 38.5589 159.517 39.7034V47.2559H156.32L156.35 37.3949C156.35 35.7359 156.31 34.2254 156.23 32.8634H159.016L159.133 35.6174H159.221C159.559 34.6709 160.091 33.9089 160.82 33.3374C161.533 32.8229 162.302 32.5664 163.132 32.5664C163.427 32.5664 163.694 32.5874 163.931 32.6249V35.6744Z" fill="white"/>
<path d="M178.234 39.3776C178.234 39.9506 178.197 40.4336 178.117 40.8281H168.523C168.561 42.2501 169.024 43.3376 169.915 44.0876C170.724 44.7581 171.769 45.0941 173.053 45.0941C174.474 45.0941 175.77 44.8676 176.935 44.4131L177.436 46.6331C176.074 47.2271 174.466 47.5226 172.611 47.5226C170.379 47.5226 168.627 46.8656 167.352 45.5531C166.08 44.2406 165.442 42.4781 165.442 40.2671C165.442 38.0966 166.035 36.2891 167.221 34.8476C168.463 33.3086 170.142 32.5391 172.254 32.5391C174.328 32.5391 175.899 33.3086 176.965 34.8476C177.81 36.0701 178.234 37.5821 178.234 39.3776ZM175.185 38.5481C175.206 37.6001 174.997 36.7811 174.564 36.0896C174.01 35.2001 173.16 34.7561 172.015 34.7561C170.97 34.7561 170.119 35.1896 169.47 36.0596C168.937 36.7511 168.621 37.5806 168.523 38.5466L175.185 38.5481Z" fill="white"/>
<path d="M68.575 15.0145C68.575 16.78 68.0455 18.109 66.988 19.0015C66.0085 19.825 64.6165 20.2375 62.8135 20.2375C61.9195 20.2375 61.1545 20.1985 60.514 20.1205V10.474C61.3495 10.339 62.2495 10.27 63.2215 10.27C64.939 10.27 66.2335 10.6435 67.1065 11.3905C68.0845 12.235 68.575 13.4425 68.575 15.0145ZM66.9175 15.058C66.9175 13.9135 66.6145 13.036 66.0085 12.424C65.4025 11.8135 64.5175 11.5075 63.352 11.5075C62.857 11.5075 62.4355 11.5405 62.086 11.6095V18.943C62.2795 18.973 62.6335 18.9865 63.148 18.9865C64.351 18.9865 65.2795 18.652 65.9335 17.983C66.5875 17.314 66.9175 16.339 66.9175 15.058Z" fill="white"/>
<path d="M77.3636 16.5561C77.3636 17.6436 77.0531 18.5346 76.4321 19.2336C75.7811 19.9521 74.9186 20.3106 73.8416 20.3106C72.8036 20.3106 71.9771 19.9671 71.3606 19.2771C70.7456 18.5886 70.4381 17.7201 70.4381 16.6731C70.4381 15.5781 70.7546 14.6796 71.3906 13.9821C72.0266 13.2846 72.8816 12.9351 73.9586 12.9351C74.9966 12.9351 75.8306 13.2786 76.4621 13.9671C77.0621 14.6361 77.3636 15.5001 77.3636 16.5561ZM75.7331 16.6071C75.7331 15.9546 75.5921 15.3951 75.3116 14.9286C74.9816 14.3646 74.5121 14.0826 73.9016 14.0826C73.2701 14.0826 72.7901 14.3646 72.4601 14.9286C72.1781 15.3951 72.0386 15.9636 72.0386 16.6356C72.0386 17.2881 72.1796 17.8476 72.4601 18.3141C72.8006 18.8781 73.2746 19.1601 73.8866 19.1601C74.4866 19.1601 74.9576 18.8736 75.2966 18.2991C75.5876 17.8236 75.7331 17.2596 75.7331 16.6071Z" fill="white"/>
<path d="M89.1476 13.0796L86.9351 20.1506H85.4951L84.5786 17.0801C84.3461 16.3136 84.1571 15.5516 84.0101 14.7956H83.9816C83.8451 15.5726 83.6561 16.3331 83.4131 17.0801L82.4396 20.1506H80.9831L78.9026 13.0796H80.5181L81.3176 16.4411C81.5111 17.2361 81.6701 17.9936 81.7976 18.7106H81.8261C81.9431 18.1196 82.1366 17.3666 82.4096 16.4561L83.4131 13.0811H84.6941L85.6556 16.3841C85.8881 17.1896 86.0771 17.9651 86.2226 18.7121H86.2661C86.3726 17.9846 86.5331 17.2091 86.7461 16.3841L87.6041 13.0811H89.1476V13.0796Z" fill="white"/>
<path d="M97.2971 20.1502H95.7251V16.1002C95.7251 14.8522 95.2511 14.2282 94.3001 14.2282C93.8336 14.2282 93.4571 14.3992 93.1646 14.7427C92.8751 15.0862 92.7281 15.4912 92.7281 15.9547V20.1487H91.1561V15.0997C91.1561 14.4787 91.1366 13.8052 91.0991 13.0762H92.4806L92.5541 14.1817H92.5976C92.7806 13.8382 93.0536 13.5547 93.4121 13.3282C93.8381 13.0642 94.3151 12.9307 94.8371 12.9307C95.4971 12.9307 96.0461 13.1437 96.4826 13.5712C97.0256 14.0947 97.2971 14.8762 97.2971 15.9142V20.1502Z" fill="white"/>
<path d="M101.632 20.1505H100.062V9.83496H101.632V20.1505Z" fill="white"/>
<path d="M110.887 16.5561C110.887 17.6436 110.577 18.5346 109.956 19.2336C109.305 19.9521 108.441 20.3106 107.365 20.3106C106.326 20.3106 105.499 19.9671 104.884 19.2771C104.269 18.5886 103.962 17.7201 103.962 16.6731C103.962 15.5781 104.278 14.6796 104.914 13.9821C105.55 13.2846 106.405 12.9351 107.481 12.9351C108.52 12.9351 109.353 13.2786 109.986 13.9671C110.586 14.6361 110.887 15.5001 110.887 16.5561ZM109.255 16.6071C109.255 15.9546 109.114 15.3951 108.834 14.9286C108.505 14.3646 108.034 14.0826 107.425 14.0826C106.792 14.0826 106.312 14.3646 105.984 14.9286C105.702 15.3951 105.562 15.9636 105.562 16.6356C105.562 17.2881 105.703 17.8476 105.984 18.3141C106.324 18.8781 106.798 19.1601 107.41 19.1601C108.01 19.1601 108.48 18.8736 108.819 18.2991C109.111 17.8236 109.255 17.2596 109.255 16.6071Z" fill="white"/>
<path d="M118.495 20.1501H117.084L116.967 19.3356H116.923C116.44 19.9851 115.752 20.3106 114.858 20.3106C114.19 20.3106 113.65 20.0961 113.244 19.6701C112.875 19.2831 112.69 18.8016 112.69 18.2301C112.69 17.3661 113.05 16.7076 113.775 16.2516C114.498 15.7956 115.515 15.5721 116.824 15.5826V15.4506C116.824 14.5191 116.335 14.0541 115.356 14.0541C114.658 14.0541 114.043 14.2296 113.512 14.5776L113.193 13.5456C113.85 13.1391 114.661 12.9351 115.618 12.9351C117.466 12.9351 118.393 13.9101 118.393 15.8601V18.4641C118.393 19.1706 118.428 19.7331 118.495 20.1501ZM116.863 17.7201V16.6296C115.129 16.5996 114.262 17.0751 114.262 18.0546C114.262 18.4236 114.361 18.6996 114.564 18.8841C114.766 19.0686 115.024 19.1601 115.332 19.1601C115.677 19.1601 115.999 19.0506 116.293 18.8331C116.589 18.6141 116.77 18.3366 116.838 17.9961C116.854 17.9196 116.863 17.8266 116.863 17.7201Z" fill="white"/>
<path d="M127.428 20.1505H126.033L125.959 19.015H125.916C125.47 19.879 124.711 20.311 123.645 20.311C122.793 20.311 122.083 19.9765 121.521 19.3075C120.958 18.6385 120.678 17.77 120.678 16.7035C120.678 15.559 120.982 14.632 121.594 13.924C122.187 13.264 122.913 12.934 123.777 12.934C124.726 12.934 125.391 13.2535 125.769 13.894H125.799V9.83496H127.372V18.2455C127.372 18.934 127.39 19.5685 127.428 20.1505ZM125.799 17.1685V15.9895C125.799 15.7855 125.784 15.6205 125.755 15.4945C125.667 15.1165 125.476 14.7985 125.187 14.542C124.894 14.2855 124.542 14.1565 124.135 14.1565C123.549 14.1565 123.09 14.389 122.752 14.8555C122.418 15.322 122.248 15.9175 122.248 16.645C122.248 17.344 122.409 17.911 122.731 18.3475C123.072 18.8125 123.531 19.045 124.105 19.045C124.621 19.045 125.034 18.8515 125.347 18.463C125.65 18.1045 125.799 17.6725 125.799 17.1685Z" fill="white"/>
<path d="M140.872 16.5561C140.872 17.6436 140.562 18.5346 139.941 19.2336C139.29 19.9521 138.429 20.3106 137.35 20.3106C136.314 20.3106 135.487 19.9671 134.869 19.2771C134.254 18.5886 133.947 17.7201 133.947 16.6731C133.947 15.5781 134.263 14.6796 134.899 13.9821C135.535 13.2846 136.39 12.9351 137.469 12.9351C138.505 12.9351 139.341 13.2786 139.971 13.9671C140.571 14.6361 140.872 15.5001 140.872 16.5561ZM139.243 16.6071C139.243 15.9546 139.102 15.3951 138.822 14.9286C138.49 14.3646 138.022 14.0826 137.41 14.0826C136.78 14.0826 136.3 14.3646 135.969 14.9286C135.687 15.3951 135.547 15.9636 135.547 16.6356C135.547 17.2881 135.688 17.8476 135.969 18.3141C136.309 18.8781 136.783 19.1601 137.395 19.1601C137.995 19.1601 138.468 18.8736 138.807 18.2991C139.096 17.8236 139.243 17.2596 139.243 16.6071Z" fill="white"/>
<path d="M149.325 20.1502H147.754V16.1002C147.754 14.8522 147.28 14.2282 146.328 14.2282C145.861 14.2282 145.485 14.3992 145.194 14.7427C144.903 15.0862 144.757 15.4912 144.757 15.9547V20.1487H143.184V15.0997C143.184 14.4787 143.166 13.8052 143.128 13.0762H144.508L144.582 14.1817H144.625C144.81 13.8382 145.083 13.5547 145.44 13.3282C145.867 13.0642 146.343 12.9307 146.866 12.9307C147.525 12.9307 148.074 13.1437 148.51 13.5712C149.055 14.0947 149.325 14.8762 149.325 15.9142V20.1502Z" fill="white"/>
<path d="M159.904 14.2564H158.173V17.6914C158.173 18.5644 158.481 19.0009 159.09 19.0009C159.372 19.0009 159.606 18.9769 159.79 18.9274L159.831 20.1199C159.52 20.2369 159.112 20.2954 158.61 20.2954C157.989 20.2954 157.506 20.1064 157.156 19.7284C156.805 19.3504 156.631 18.7144 156.631 17.8219V14.2564H155.598V13.0789H156.631V11.7829L158.172 11.3179V13.0774H159.903L159.904 14.2564Z" fill="white"/>
<path d="M168.226 20.1505H166.653V16.1305C166.653 14.863 166.179 14.2285 165.229 14.2285C164.5 14.2285 164.002 14.596 163.729 15.331C163.683 15.4855 163.656 15.6745 163.656 15.8965V20.149H162.085V9.83496H163.656V14.0965H163.686C164.181 13.321 164.89 12.934 165.81 12.934C166.461 12.934 166.999 13.147 167.427 13.5745C167.959 14.107 168.226 14.899 168.226 15.946V20.1505Z" fill="white"/>
<path d="M176.81 16.2804C176.81 16.5624 176.789 16.7994 176.752 16.9929H172.037C172.058 17.6919 172.283 18.2244 172.72 18.5934C173.119 18.9234 173.633 19.0884 174.263 19.0884C174.961 19.0884 175.597 18.9774 176.17 18.7539L176.416 19.8459C175.745 20.1369 174.956 20.2824 174.043 20.2824C172.948 20.2824 172.085 19.9599 171.461 19.3149C170.834 18.6699 170.524 17.8044 170.524 16.7184C170.524 15.6519 170.813 14.7639 171.397 14.0559C172.006 13.2999 172.829 12.9219 173.869 12.9219C174.886 12.9219 175.658 13.2999 176.18 14.0559C176.602 14.6559 176.81 15.3984 176.81 16.2804ZM175.31 15.8739C175.322 15.4074 175.219 15.0054 175.006 14.6664C174.733 14.2299 174.317 14.0109 173.755 14.0109C173.242 14.0109 172.823 14.2239 172.504 14.6514C172.243 14.9919 172.088 15.3984 172.037 15.8739H175.31Z" fill="white"/>
</svg>
