<svg width="64" height="64" viewBox="0 0 64 64" fill="none" xmlns="http://www.w3.org/2000/svg">
<path d="M0 25.6C0 16.6392 0 12.1587 1.7439 8.73615C3.27787 5.72556 5.72556 3.27787 8.73615 1.7439C12.1587 0 16.6392 0 25.6 0H38.4C47.3608 0 51.8413 0 55.2638 1.7439C58.2744 3.27787 60.7221 5.72556 62.2561 8.73615C64 12.1587 64 16.6392 64 25.6V38.4C64 47.3608 64 51.8413 62.2561 55.2638C60.7221 58.2744 58.2744 60.7221 55.2638 62.2561C51.8413 64 47.3608 64 38.4 64H25.6C16.6392 64 12.1587 64 8.73615 62.2561C5.72556 60.7221 3.27787 58.2744 1.7439 55.2638C0 51.8413 0 47.3608 0 38.4V25.6Z" fill="#F5F5F7"/>
<path d="M25.5996 0.5H38.4004C42.8889 0.5 46.2253 0.500866 48.8682 0.716797C51.5052 0.932261 53.4081 1.35942 55.0371 2.18945C57.9534 3.67546 60.3245 6.04656 61.8105 8.96289C62.6406 10.5919 63.0677 12.4948 63.2832 15.1318C63.4991 17.7747 63.5 21.1111 63.5 25.5996V38.4004C63.5 42.8889 63.4991 46.2253 63.2832 48.8682C63.0677 51.5052 62.6406 53.4081 61.8105 55.0371C60.3245 57.9534 57.9534 60.3245 55.0371 61.8105C53.4081 62.6406 51.5052 63.0677 48.8682 63.2832C46.2253 63.4991 42.8889 63.5 38.4004 63.5H25.5996C21.1111 63.5 17.7747 63.4991 15.1318 63.2832C12.4948 63.0677 10.5919 62.6406 8.96289 61.8105C6.04656 60.3245 3.67546 57.9534 2.18945 55.0371C1.35942 53.4081 0.932261 51.5052 0.716797 48.8682C0.500866 46.2253 0.5 42.8889 0.5 38.4004V25.5996C0.5 21.1111 0.500866 17.7747 0.716797 15.1318C0.932261 12.4948 1.35942 10.5919 2.18945 8.96289C3.67546 6.04656 6.04656 3.67546 8.96289 2.18945C10.5919 1.35942 12.4948 0.932261 15.1318 0.716797C17.7747 0.500866 21.1111 0.5 25.5996 0.5Z" stroke="#1D1D1F" stroke-opacity="0.1"/>
<g clip-path="url(#clip0_1_4674)">
<path d="M32.8248 39.3333H36.6564L27.2881 15.5H23.8781L14.5098 39.3333H18.3414L20.3948 33.8333H30.7348L32.8248 39.3333ZM21.7881 30.1667L25.5831 20.0467L29.3781 30.1667H21.7881ZM49.5814 31.2483L34.7498 46.08L28.0214 39.3333L25.4364 41.9183L34.7681 51.25L52.1664 33.8333L49.5814 31.2483Z" fill="#2BC56C"/>
</g>
<defs>
<clipPath id="clip0_1_4674">
<rect width="44" height="44" fill="white" transform="translate(10 10)"/>
</clipPath>
</defs>
</svg>
