<svg width="160" height="90" viewBox="0 0 160 90" fill="none" xmlns="http://www.w3.org/2000/svg">
<g opacity="0.2">
<g clip-path="url(#clip0_1_4717)">
<path d="M47.9904 40.1729H61.6597V42.7232H56.2849V57.0599H53.3294V42.7232H47.9785V40.1729H47.9904ZM61.0757 44.8326H63.6022V47.1922H63.6499C63.7333 46.8585 63.8882 46.5368 64.1146 46.2269C64.3411 45.9171 64.6152 45.6191 64.9369 45.3689C65.2587 45.1067 65.6162 44.9041 66.0095 44.7372C66.4028 44.5823 66.808 44.4989 67.2132 44.4989C67.523 44.4989 67.7494 44.5108 67.8686 44.5227C67.9878 44.5346 68.107 44.5585 68.2381 44.5704V47.1684C68.0474 47.1326 67.8567 47.1088 67.6541 47.085C67.4515 47.0611 67.2608 47.0492 67.0701 47.0492C66.6173 47.0492 66.1883 47.1445 65.7831 47.3233C65.3779 47.5021 65.0323 47.7762 64.7343 48.1218C64.4364 48.4793 64.1981 48.9083 64.0193 49.4327C63.8405 49.9571 63.7571 50.5529 63.7571 51.2322V57.0479H61.0638V44.8326H61.0757ZM80.6202 57.0599H77.9745V55.3557H77.9269C77.5932 55.9754 77.1046 56.464 76.4491 56.8334C75.7937 57.2029 75.1263 57.3935 74.447 57.3935C72.8382 57.3935 71.6703 57.0003 70.9552 56.2018C70.2402 55.4033 69.8827 54.1997 69.8827 52.5908V44.8326H72.576V52.3286C72.576 53.4012 72.7786 54.1639 73.1957 54.6049C73.6009 55.0458 74.1848 55.2722 74.9237 55.2722C75.4957 55.2722 75.9605 55.1888 76.3419 55.0101C76.7232 54.8313 77.0331 54.6049 77.2595 54.3069C77.4979 54.0209 77.6647 53.6634 77.7719 53.2582C77.8792 52.853 77.9269 52.4121 77.9269 51.9354V44.8445H80.6202V57.0599ZM85.2084 53.139C85.2918 53.9256 85.5898 54.4738 86.1022 54.7955C86.6266 55.1054 87.2463 55.2722 87.9732 55.2722C88.2235 55.2722 88.5095 55.2484 88.8313 55.2126C89.153 55.1769 89.4629 55.0935 89.737 54.9862C90.023 54.879 90.2494 54.7121 90.4401 54.4976C90.6189 54.2831 90.7023 54.009 90.6904 53.6634C90.6785 53.3178 90.5474 53.0318 90.309 52.8172C90.0707 52.5908 89.7728 52.424 89.4033 52.281C89.0339 52.1499 88.6168 52.0307 88.1401 51.9354C87.6634 51.84 87.1867 51.7328 86.6981 51.6255C86.1975 51.5182 85.7089 51.3752 85.2441 51.2203C84.7794 51.0654 84.3623 50.8509 83.9928 50.5768C83.6234 50.3146 83.3255 49.969 83.1109 49.5519C82.8845 49.1348 82.7772 48.6223 82.7772 48.0026C82.7772 47.3352 82.9441 46.787 83.2659 46.3342C83.5876 45.8813 84.0047 45.5238 84.4934 45.2497C84.9939 44.9756 85.5421 44.7849 86.1499 44.6657C86.7577 44.5585 87.3416 44.4989 87.8898 44.4989C88.5214 44.4989 89.1292 44.5704 89.7012 44.7015C90.2733 44.8326 90.7976 45.0471 91.2624 45.3569C91.7272 45.6549 92.1086 46.0481 92.4184 46.5248C92.7283 47.0015 92.9189 47.5855 93.0024 48.2648H90.1899C90.0588 47.6212 89.7728 47.1803 89.308 46.9658C88.8432 46.7394 88.3069 46.6321 87.711 46.6321C87.5204 46.6321 87.2939 46.644 87.0317 46.6798C86.7696 46.7155 86.5312 46.7751 86.2929 46.8585C86.0664 46.942 85.8758 47.073 85.7089 47.2399C85.554 47.4067 85.4706 47.6212 85.4706 47.8953C85.4706 48.229 85.5897 48.4912 85.8162 48.6938C86.0426 48.8964 86.3405 49.0633 86.71 49.2063C87.0794 49.3374 87.4965 49.4565 87.9732 49.5519C88.4499 49.6472 88.9385 49.7545 89.4391 49.8617C89.9277 49.969 90.4044 50.112 90.8811 50.2669C91.3578 50.4218 91.7749 50.6364 92.1443 50.9105C92.5137 51.1846 92.8117 51.5182 93.0381 51.9234C93.2645 52.3286 93.3837 52.8411 93.3837 53.437C93.3837 54.1639 93.2169 54.7717 92.8832 55.2842C92.5495 55.7847 92.1205 56.2018 91.5961 56.5116C91.0717 56.8215 90.4759 57.0598 89.8323 57.2029C89.1888 57.3459 88.5453 57.4174 87.9136 57.4174C87.139 57.4174 86.424 57.334 85.7685 57.1552C85.1131 56.9764 84.541 56.7142 84.0643 56.3686C83.5876 56.0111 83.2063 55.5702 82.9322 55.0458C82.6581 54.5214 82.5151 53.8898 82.4912 53.1629H85.2084V53.139ZM94.0988 44.8326H96.1366V41.162H98.83V44.8326H101.261V46.8466H98.83V53.3774C98.83 53.6634 98.8419 53.9017 98.8657 54.1162C98.8895 54.3188 98.9491 54.4976 99.0326 54.6406C99.116 54.7836 99.2471 54.8909 99.4258 54.9624C99.6046 55.0339 99.831 55.0696 100.141 55.0696C100.332 55.0696 100.522 55.0696 100.713 55.0577C100.904 55.0458 101.094 55.022 101.285 54.9743V57.0599C100.987 57.0956 100.689 57.1194 100.415 57.1552C100.129 57.1909 99.8429 57.2029 99.545 57.2029C98.83 57.2029 98.2579 57.1314 97.8289 57.0003C97.3999 56.8692 97.0543 56.6666 96.8159 56.4044C96.5657 56.1422 96.4107 55.8204 96.3154 55.4272C96.232 55.0339 96.1724 54.581 96.1605 54.0805V46.8704H94.1226V44.8326H94.0988ZM103.168 44.8326H105.718V46.4891H105.766C106.147 45.774 106.672 45.2735 107.351 44.9637C108.03 44.6538 108.757 44.4989 109.556 44.4989C110.521 44.4989 111.355 44.6657 112.07 45.0113C112.785 45.345 113.381 45.8098 113.858 46.4057C114.334 47.0015 114.68 47.6928 114.918 48.4793C115.157 49.2659 115.276 50.112 115.276 51.0058C115.276 51.8281 115.169 52.6266 114.954 53.3893C114.74 54.1639 114.418 54.8432 113.989 55.4391C113.56 56.035 113.012 56.4997 112.344 56.8573C111.677 57.2148 110.902 57.3935 109.997 57.3935C109.603 57.3935 109.21 57.3578 108.817 57.2863C108.423 57.2148 108.042 57.0956 107.685 56.9407C107.327 56.7858 106.981 56.5832 106.684 56.3329C106.374 56.0826 106.123 55.7966 105.909 55.4748H105.861V61.5766H103.168V44.8326ZM112.583 50.9581C112.583 50.4099 112.511 49.8736 112.368 49.3493C112.225 48.8249 112.011 48.372 111.725 47.9669C111.439 47.5617 111.081 47.2399 110.664 47.0015C110.235 46.7632 109.746 46.6321 109.198 46.6321C108.066 46.6321 107.208 47.0254 106.636 47.8119C106.064 48.5985 105.778 49.6472 105.778 50.9581C105.778 51.5778 105.849 52.1499 106.004 52.6742C106.159 53.1986 106.374 53.6515 106.684 54.0328C106.981 54.4142 107.339 54.7121 107.756 54.9266C108.173 55.1531 108.662 55.2603 109.21 55.2603C109.83 55.2603 110.342 55.1292 110.771 54.879C111.2 54.6287 111.546 54.295 111.82 53.9017C112.094 53.4965 112.297 53.0437 112.416 52.5312C112.523 52.0188 112.583 51.4944 112.583 50.9581ZM117.338 40.1729H120.031V42.7232H117.338V40.1729ZM117.338 44.8326H120.031V57.0599H117.338V44.8326ZM122.438 40.1729H125.132V57.0599H122.438V40.1729ZM133.39 57.3935C132.413 57.3935 131.543 57.2267 130.78 56.9049C130.018 56.5832 129.374 56.1303 128.838 55.5702C128.314 54.9981 127.908 54.3188 127.634 53.5323C127.36 52.7457 127.217 51.8758 127.217 50.9343C127.217 50.0047 127.36 49.1467 127.634 48.3601C127.908 47.5736 128.314 46.8943 128.838 46.3222C129.362 45.7502 130.018 45.3093 130.78 44.9875C131.543 44.6657 132.413 44.4989 133.39 44.4989C134.368 44.4989 135.238 44.6657 136 44.9875C136.763 45.3093 137.407 45.7621 137.943 46.3222C138.467 46.8943 138.872 47.5736 139.146 48.3601C139.421 49.1467 139.564 50.0047 139.564 50.9343C139.564 51.8758 139.421 52.7457 139.146 53.5323C138.872 54.3188 138.467 54.9981 137.943 55.5702C137.418 56.1422 136.763 56.5832 136 56.9049C135.238 57.2267 134.368 57.3935 133.39 57.3935ZM133.39 55.2603C133.986 55.2603 134.511 55.1292 134.952 54.879C135.392 54.6287 135.75 54.295 136.036 53.8898C136.322 53.4846 136.525 53.0198 136.668 52.5074C136.799 51.9949 136.87 51.4706 136.87 50.9343C136.87 50.4099 136.799 49.8975 136.668 49.3731C136.537 48.8487 136.322 48.3959 136.036 47.9907C135.75 47.5855 135.392 47.2637 134.952 47.0135C134.511 46.7632 133.986 46.6321 133.39 46.6321C132.794 46.6321 132.27 46.7632 131.829 47.0135C131.388 47.2637 131.031 47.5974 130.745 47.9907C130.459 48.3959 130.256 48.8487 130.113 49.3731C129.982 49.8975 129.91 50.4099 129.91 50.9343C129.91 51.4706 129.982 51.9949 130.113 52.5074C130.244 53.0198 130.459 53.4846 130.745 53.8898C131.031 54.295 131.388 54.6287 131.829 54.879C132.27 55.1411 132.794 55.2603 133.39 55.2603ZM140.35 44.8326H142.388V41.162H145.081V44.8326H147.512V46.8466H145.081V53.3774C145.081 53.6634 145.093 53.9017 145.117 54.1162C145.141 54.3188 145.2 54.4976 145.284 54.6406C145.367 54.7836 145.498 54.8909 145.677 54.9624C145.856 55.0339 146.082 55.0696 146.392 55.0696C146.583 55.0696 146.774 55.0696 146.964 55.0577C147.155 55.0458 147.346 55.022 147.536 54.9743V57.0599C147.238 57.0956 146.94 57.1194 146.666 57.1552C146.38 57.1909 146.094 57.2029 145.796 57.2029C145.081 57.2029 144.509 57.1314 144.08 57.0003C143.651 56.8692 143.306 56.6666 143.067 56.4044C142.817 56.1422 142.662 55.8204 142.567 55.4272C142.483 55.0339 142.424 54.581 142.412 54.0805V46.8704H140.374V44.8326H140.35Z" fill="white"/>
<path d="M32.4971 40.1738H44.8438L34.8564 47.4316L38.6699 59.1699L28.6836 51.9121L18.6846 59.1699L22.5107 47.4316L12.5117 40.1611L24.8584 40.1738L28.6836 28.4229L32.4971 40.1738ZM28.6836 51.9111L35.7148 50.0879L34.8564 47.4307L28.6836 51.9111Z" fill="#00B67A"/>
<path d="M32.4971 40.1738H44.8438L34.8564 47.4316L38.6699 59.1699L28.6836 51.9121L18.6846 59.1699L22.5107 47.4316L12.5117 40.1611L24.8584 40.1738L28.6836 28.4229L32.4971 40.1738ZM28.6836 51.9111L35.7148 50.0879L34.8564 47.4307L28.6836 51.9111Z" fill="white"/>
</g>
</g>
<defs>
<clipPath id="clip0_1_4717">
<rect width="135" height="33.1543" fill="white" transform="translate(12.5 28.4229)"/>
</clipPath>
</defs>
</svg>
