<svg width="64" height="64" viewBox="0 0 64 64" fill="none" xmlns="http://www.w3.org/2000/svg">
<path d="M0 25.6C0 16.6392 0 12.1587 1.7439 8.73615C3.27787 5.72556 5.72556 3.27787 8.73615 1.7439C12.1587 0 16.6392 0 25.6 0H38.4C47.3608 0 51.8413 0 55.2638 1.7439C58.2744 3.27787 60.7221 5.72556 62.2561 8.73615C64 12.1587 64 16.6392 64 25.6V38.4C64 47.3608 64 51.8413 62.2561 55.2638C60.7221 58.2744 58.2744 60.7221 55.2638 62.2561C51.8413 64 47.3608 64 38.4 64H25.6C16.6392 64 12.1587 64 8.73615 62.2561C5.72556 60.7221 3.27787 58.2744 1.7439 55.2638C0 51.8413 0 47.3608 0 38.4V25.6Z" fill="#F5F5F7"/>
<path d="M25.5996 0.5H38.4004C42.8889 0.5 46.2253 0.500866 48.8682 0.716797C51.5052 0.932261 53.4081 1.35942 55.0371 2.18945C57.9534 3.67546 60.3245 6.04656 61.8105 8.96289C62.6406 10.5919 63.0677 12.4948 63.2832 15.1318C63.4991 17.7747 63.5 21.1111 63.5 25.5996V38.4004C63.5 42.8889 63.4991 46.2253 63.2832 48.8682C63.0677 51.5052 62.6406 53.4081 61.8105 55.0371C60.3245 57.9534 57.9534 60.3245 55.0371 61.8105C53.4081 62.6406 51.5052 63.0677 48.8682 63.2832C46.2253 63.4991 42.8889 63.5 38.4004 63.5H25.5996C21.1111 63.5 17.7747 63.4991 15.1318 63.2832C12.4948 63.0677 10.5919 62.6406 8.96289 61.8105C6.04656 60.3245 3.67546 57.9534 2.18945 55.0371C1.35942 53.4081 0.932261 51.5052 0.716797 48.8682C0.500866 46.2253 0.5 42.8889 0.5 38.4004V25.5996C0.5 21.1111 0.500866 17.7747 0.716797 15.1318C0.932261 12.4948 1.35942 10.5919 2.18945 8.96289C3.67546 6.04656 6.04656 3.67546 8.96289 2.18945C10.5919 1.35942 12.4948 0.932261 15.1318 0.716797C17.7747 0.500866 21.1111 0.5 25.5996 0.5Z" stroke="#1D1D1F" stroke-opacity="0.1"/>
<g clip-path="url(#clip0_1_4676)">
<path d="M31.9833 15.3333C22.7833 15.3333 15.3333 22.8 15.3333 32C15.3333 41.2 22.7833 48.6667 31.9833 48.6667C41.1999 48.6667 48.6666 41.2 48.6666 32C48.6666 22.8 41.1999 15.3333 31.9833 15.3333ZM43.5333 25.3333H38.6166C38.0833 23.25 37.3166 21.25 36.3166 19.4C39.3833 20.45 41.9333 22.5833 43.5333 25.3333ZM31.9999 18.7333C33.3833 20.7333 34.4666 22.95 35.1833 25.3333H28.8166C29.5333 22.95 30.6166 20.7333 31.9999 18.7333ZM19.0999 35.3333C18.8333 34.2667 18.6666 33.15 18.6666 32C18.6666 30.85 18.8333 29.7333 19.0999 28.6667H24.7333C24.5999 29.7667 24.4999 30.8667 24.4999 32C24.4999 33.1333 24.5999 34.2333 24.7333 35.3333H19.0999ZM20.4666 38.6667H25.3833C25.9166 40.75 26.6833 42.75 27.6833 44.6C24.6166 43.55 22.0666 41.4333 20.4666 38.6667ZM25.3833 25.3333H20.4666C22.0666 22.5667 24.6166 20.45 27.6833 19.4C26.6833 21.25 25.9166 23.25 25.3833 25.3333ZM31.9999 45.2667C30.6166 43.2667 29.5333 41.05 28.8166 38.6667H35.1833C34.4666 41.05 33.3833 43.2667 31.9999 45.2667ZM35.8999 35.3333H28.0999C27.9499 34.2333 27.8333 33.1333 27.8333 32C27.8333 30.8667 27.9499 29.75 28.0999 28.6667H35.8999C36.0499 29.75 36.1666 30.8667 36.1666 32C36.1666 33.1333 36.0499 34.2333 35.8999 35.3333ZM36.3166 44.6C37.3166 42.75 38.0833 40.75 38.6166 38.6667H43.5333C41.9333 41.4167 39.3833 43.55 36.3166 44.6ZM39.2666 35.3333C39.3999 34.2333 39.4999 33.1333 39.4999 32C39.4999 30.8667 39.3999 29.7667 39.2666 28.6667H44.8999C45.1666 29.7333 45.3333 30.85 45.3333 32C45.3333 33.15 45.1666 34.2667 44.8999 35.3333H39.2666Z" fill="#2386F7"/>
</g>
<defs>
<clipPath id="clip0_1_4676">
<rect width="40" height="40" fill="white" transform="translate(12 12)"/>
</clipPath>
</defs>
</svg>
