<svg width="36" height="36" viewBox="0 0 36 36" fill="none" xmlns="http://www.w3.org/2000/svg">
<path d="M9.59333 5H26.4067C28.92 5 31 7.13693 31 9.71905V26.2803C31 28.9069 28.92 30.9993 26.4067 30.9993H9.59333C7.08 31.0438 5 28.9069 5 26.3248V9.71905C5 7.13693 7.08 5 9.59333 5Z" fill="#B30B00"/>
<path d="M25.8865 20.0151C25.3665 19.4517 24.3698 19.1917 22.9398 19.1917C22.1598 19.1917 21.3365 19.2784 20.5565 19.4084C20.0365 18.9317 19.6032 18.3684 19.1698 17.8051C18.8665 17.3717 18.5632 16.9384 18.3032 16.4617C18.7365 15.2484 18.9965 13.9484 19.0832 12.6484C19.0832 11.4784 18.6065 10.2217 17.3065 10.2217C16.8732 10.2217 16.4398 10.4817 16.2232 10.8717C15.6598 11.8251 15.8765 13.7751 16.7865 15.8117C16.4832 16.7217 16.1365 17.6317 15.7465 18.6284C15.3998 19.4951 15.0098 20.3184 14.5332 21.0984C13.1898 21.6184 10.3732 22.9184 10.1132 24.3484C10.0265 24.7817 10.1565 25.2151 10.5032 25.4751C10.8065 25.7351 11.2398 25.9084 11.6732 25.8651C13.3632 25.8651 15.0532 23.5251 16.2232 21.4884C16.8732 21.2717 17.5232 21.0551 18.2165 20.8817C18.9532 20.7084 19.6465 20.5351 20.2965 20.4051C22.1165 21.9651 23.7198 22.2251 24.4998 22.2251C25.5832 22.2251 26.0165 21.7484 26.1465 21.3584C26.3198 20.8817 26.2332 20.3617 25.8865 20.0151ZM24.7165 20.8384C24.6732 21.1417 24.3265 21.3584 23.8932 21.3584C23.7632 21.3584 23.6332 21.3584 23.5032 21.3151C22.6365 21.0984 21.8132 20.6651 21.1198 20.1017C21.6832 20.0151 22.2898 19.9717 22.8532 19.9717C23.2432 19.9717 23.6332 20.0151 24.0232 20.0584C24.4132 20.1451 24.8465 20.3184 24.7165 20.8384ZM16.9598 11.2617C17.0465 11.1317 17.1765 11.0451 17.3498 11.0017C17.7832 11.0017 17.8698 11.4784 17.8698 11.9117C17.8265 12.9084 17.6532 13.8617 17.3498 14.8151C16.6132 12.9517 16.6998 11.6951 16.9598 11.2617ZM19.3865 19.5817C18.9098 19.6684 18.4332 19.7984 17.9565 19.9284C17.6098 20.0151 17.2632 20.1451 16.8732 20.2317C17.0465 19.8417 17.2198 19.4517 17.3932 19.1051C17.6098 18.6284 17.7832 18.1517 17.9565 17.6751C18.1298 17.9351 18.2598 18.1517 18.4332 18.3684C18.7365 18.8017 19.0832 19.1917 19.3865 19.5817ZM14.1432 22.0951C13.0598 23.8284 11.9765 24.9551 11.3698 24.9551C11.2832 24.9551 11.1532 24.9117 11.1098 24.8684C10.9798 24.7817 10.9365 24.6084 10.9798 24.4784C11.0665 23.8284 12.3232 22.9184 14.1432 22.0951Z" fill="white"/>
</svg>
