<svg width="36" height="36" viewBox="0 0 36 36" fill="none" xmlns="http://www.w3.org/2000/svg">
<path d="M12.224 26.0376C11.4295 26.0376 10.7817 26.6562 10.7817 27.4239C10.7817 27.9457 11.0824 28.3928 11.5299 28.6314L17.106 31.6198C17.5483 31.8692 18.0475 32.0001 18.5553 31.9999C18.8948 31.9999 19.2188 31.9404 19.5195 31.8359L21.4244 31.3068V26.0303C21.4323 26.0376 12.2316 26.0376 12.224 26.0376Z" fill="url(#paint0_linear_1_4734)"/>
<path d="M12.224 26.0376C11.4295 26.0376 10.7817 26.6562 10.7817 27.4239C10.7817 27.9457 11.0824 28.3928 11.5299 28.6314L17.106 31.6198C17.5483 31.8692 18.0475 32.0001 18.5553 31.9999C18.8948 31.9999 19.2188 31.9404 19.5195 31.8359L21.4244 31.3068V26.0303C21.4323 26.0376 12.2316 26.0376 12.224 26.0376Z" fill="url(#paint1_linear_1_4734)"/>
<path d="M19.3971 4.11167C19.1337 4.03647 18.861 3.99886 18.5871 3.99996C18.1321 3.99996 17.6771 4.0895 17.2682 4.29805C17.1836 4.33538 8.19844 9.21675 8.19844 9.21675C8.07506 9.27654 7.95927 9.35091 7.85135 9.42558C7.83619 9.43287 7.82831 9.44046 7.81285 9.44804C7.74344 9.49996 7.6816 9.55216 7.61248 9.60437C7.58156 9.62683 7.55064 9.65687 7.5276 9.67904C7.4891 9.71608 7.45031 9.75342 7.41968 9.79075C7.31177 9.90246 7.12656 10.1408 7.12656 10.1408C6.8088 10.5925 6.63902 11.1317 6.64064 11.684V24.6516C6.64064 25.4195 7.28843 26.0381 8.08294 26.0381C8.28331 26.0381 8.46852 26.0008 8.63827 25.9261L11.2064 24.5326C11.669 24.3091 12.0394 23.9288 12.2322 23.4592C12.2783 23.3624 12.3168 23.2434 12.3401 23.1238C12.3477 23.094 12.3556 23.0567 12.3556 23.027C12.3556 23.0124 12.3632 22.9899 12.3632 22.975C12.371 22.9225 12.3786 22.863 12.3786 22.8111C12.3786 22.7662 12.3865 22.7289 12.3865 22.6842V15.7828V13.6288C12.3865 13.0251 12.6563 12.4811 13.0807 12.1011C13.2811 11.9223 13.5433 11.7656 13.8518 11.6615C14.1601 11.5495 21.4562 9.00091 21.4562 9.00091V4.70055L19.3971 4.11167Z" fill="url(#paint2_linear_1_4734)"/>
<path d="M19.3971 4.11167C19.1337 4.03647 18.861 3.99886 18.5871 3.99996C18.1321 3.99996 17.6771 4.0895 17.2682 4.29805C17.1836 4.33538 8.19844 9.21675 8.19844 9.21675C8.07506 9.27654 7.95927 9.35091 7.85135 9.42558C7.83619 9.43287 7.82831 9.44046 7.81285 9.44804C7.74344 9.49996 7.6816 9.55216 7.61248 9.60437C7.58156 9.62683 7.55064 9.65687 7.5276 9.67904C7.4891 9.71608 7.45031 9.75342 7.41968 9.79075C7.31177 9.90246 7.12656 10.1408 7.12656 10.1408C6.8088 10.5925 6.63902 11.1317 6.64064 11.684V24.6516C6.64064 25.4195 7.28843 26.0381 8.08294 26.0381C8.28331 26.0381 8.46852 26.0008 8.63827 25.9261L11.2064 24.5326C11.669 24.3091 12.0394 23.9288 12.2322 23.4592C12.2783 23.3624 12.3168 23.2434 12.3401 23.1238C12.3477 23.094 12.3556 23.0567 12.3556 23.027C12.3556 23.0124 12.3632 22.9899 12.3632 22.975C12.371 22.9225 12.3786 22.863 12.3786 22.8111C12.3786 22.7662 12.3865 22.7289 12.3865 22.6842V15.7828V13.6288C12.3865 13.0251 12.6563 12.4811 13.0807 12.1011C13.2811 11.9223 13.5433 11.7656 13.8518 11.6615C14.1601 11.5495 21.4562 9.00091 21.4562 9.00091V4.70055L19.3971 4.11167Z" fill="url(#paint3_linear_1_4734)"/>
<path d="M27.6113 6.43526L19.521 4.14771C20.6932 4.58754 21.4256 5.57863 21.4256 6.78614C21.4256 6.78614 21.4183 28.7196 21.4256 29.2487C21.4335 30.441 20.6468 31.4622 19.521 31.8422C19.7677 31.7751 27.6113 29.5914 27.6113 29.5914C28.7756 29.2338 29.6165 28.1902 29.6165 26.946V9.0807C29.6241 7.84402 28.7756 6.79285 27.6113 6.43526Z" fill="url(#paint4_linear_1_4734)"/>
<defs>
<linearGradient id="paint0_linear_1_4734" x1="11.5821" y1="28.3132" x2="31.6282" y2="30.1282" gradientUnits="userSpaceOnUse">
<stop stop-color="#F32B44"/>
<stop offset="0.6" stop-color="#A4070A"/>
</linearGradient>
<linearGradient id="paint1_linear_1_4734" x1="25.166" y1="29.4618" x2="16.2666" y2="28.6559" gradientUnits="userSpaceOnUse">
<stop stop-opacity="0.4"/>
<stop offset="1" stop-opacity="0"/>
</linearGradient>
<linearGradient id="paint2_linear_1_4734" x1="19.6893" y1="3.03396" x2="4.9195" y2="24.8621" gradientUnits="userSpaceOnUse">
<stop stop-color="#800600"/>
<stop offset="0.6" stop-color="#C72127"/>
<stop offset="0.728" stop-color="#C13959"/>
<stop offset="0.847" stop-color="#BC4B81"/>
<stop offset="0.942" stop-color="#B95799"/>
<stop offset="1" stop-color="#B85BA2"/>
</linearGradient>
<linearGradient id="paint3_linear_1_4734" x1="20.0058" y1="2.59704" x2="16.8779" y2="7.21969" gradientUnits="userSpaceOnUse">
<stop stop-opacity="0.4"/>
<stop offset="1" stop-opacity="0"/>
</linearGradient>
<linearGradient id="paint4_linear_1_4734" x1="24.5744" y1="2.57445" x2="24.5744" y2="29.8945" gradientUnits="userSpaceOnUse">
<stop stop-color="#FFB900"/>
<stop offset="0.166" stop-color="#EF8400"/>
<stop offset="0.313" stop-color="#E25C01"/>
<stop offset="0.429" stop-color="#DB4401"/>
<stop offset="0.5" stop-color="#D83B01"/>
</linearGradient>
</defs>
</svg>
