<svg width="160" height="90" viewBox="0 0 160 90" fill="none" xmlns="http://www.w3.org/2000/svg">
<g opacity="0.2">
<g clip-path="url(#clip0_1_4698)">
<path d="M16.5811 39.0716C16.5811 33.5136 20.0451 30.7094 26.4399 30.7094H45.1302V42.5893H43.6016C42.9578 35.69 39.8773 32.8538 33.6186 32.8538H29.7606C26.757 32.8538 25.2972 34.3512 25.2972 37.3075V52.6611C25.2972 55.6175 26.7562 57.1149 29.7606 57.1149H33.621C39.7876 57.1149 42.925 54.1105 43.6008 46.9926H45.1294V59.2593H26.4407C20.0459 59.2593 16.5819 56.455 16.5819 50.8971V39.0716H16.5811Z" fill="white"/>
<path d="M78.1302 30.7102V59.2601H70.5295L51.852 36.5308V46.7644C51.852 54.2922 54.8716 57.0836 61.686 57.8259V59.2601H49.5811V30.7102H58.3237L75.8593 52.0557V43.1034C75.8593 35.626 72.8269 32.8065 66.1806 32.1435V30.7094L78.1302 30.7102Z" fill="white"/>
<path d="M82.6475 30.7094H111.197V42.5893H109.669C109.022 35.6644 105.945 32.8226 99.6858 32.8226H91.0986V43.5286H94.0077C98.8643 43.5286 100.929 41.3489 101.421 36.6734H102.975V52.3664H101.421C100.933 47.6684 98.8739 45.5048 94.0077 45.5048H91.0986V57.1469H99.689C105.856 57.1469 108.993 54.1337 109.669 46.9926H111.197V59.2593H82.6475V30.7094Z" fill="white"/>
<path d="M143.26 30.7094V42.5893H141.731C141.071 36.0544 138.34 33.0187 133.211 32.467V52.5434C133.211 56.0331 134.441 57.4288 138.945 57.7202V59.2585H119.024V57.7202C123.529 57.428 124.76 56.0331 124.76 52.5434V32.4662C119.631 33.0179 116.899 36.0536 116.239 42.5885H114.71V30.7094H143.26Z" fill="white"/>
</g>
</g>
<defs>
<clipPath id="clip0_1_4698">
<rect width="126.9" height="28.8" fill="white" transform="translate(16.5498 30.6)"/>
</clipPath>
</defs>
</svg>
