<svg width="234" height="60" viewBox="0 0 234 60" fill="none" xmlns="http://www.w3.org/2000/svg">
<path d="M219.715 0.000194999H14.2928C13.7431 0.000194999 13.2 0.000194999 12.6518 0.00319499C12.1928 0.00619498 11.7376 0.01491 11.2742 0.0222449C10.2677 0.0340976 9.26344 0.122709 8.27032 0.287309C7.2786 0.455492 6.31794 0.772566 5.42084 1.22781C4.52483 1.6869 3.70613 2.28344 2.99443 2.99579C2.27899 3.70614 1.68261 4.5272 1.22823 5.42742C0.772603 6.32584 0.456666 7.28858 0.291337 8.28239C0.124436 9.27494 0.0346253 10.2789 0.0227104 11.2854C0.00879933 11.7453 0.00733028 12.2067 0 12.6667V47.3379C0.00733028 47.8037 0.00879933 48.2549 0.0226954 48.7208C0.0346139 49.7272 0.124425 50.7311 0.291322 51.7236C0.456195 52.718 0.77215 53.6813 1.22822 54.5801C1.68239 55.4774 2.27886 56.2951 2.99443 57.0015C3.70343 57.717 4.52266 58.314 5.42084 58.7696C6.31793 59.226 7.27849 59.545 8.27032 59.7158C9.26361 59.879 10.2677 59.9677 11.2742 59.9809C11.7376 59.9911 12.1928 59.997 12.6518 59.997C13.2 60 13.7431 60 14.2928 60H219.715C220.254 60 220.801 60 221.34 59.997C221.797 59.997 222.265 59.9911 222.722 59.9809C223.727 59.9684 224.729 59.8797 225.72 59.7158C226.715 59.5438 227.679 59.2249 228.581 58.7696C229.478 58.3137 230.297 57.7168 231.005 57.0015C231.719 56.2923 232.316 55.4752 232.776 54.5801C233.229 53.6807 233.542 52.7174 233.704 51.7236C233.871 50.731 233.964 49.7273 233.982 48.7208C233.988 48.2549 233.988 47.8037 233.988 47.3379C234 46.793 234 46.251 234 45.6972V14.3043C234 13.755 234 13.2101 233.988 12.6667C233.988 12.2067 233.988 11.7453 233.982 11.2853C233.964 10.2788 233.871 9.27502 233.704 8.28233C233.541 7.28909 233.228 6.32643 232.776 5.42736C231.851 3.62298 230.384 2.15423 228.581 1.22767C227.679 0.773544 226.715 0.456554 225.72 0.287174C224.729 0.121849 223.727 0.0332065 222.722 0.0220349C222.265 0.014715 221.797 0.00592498 221.34 0.00299999C220.801 0 220.254 0.000194999 219.715 0.000194999Z" fill="black"/>
<path d="M69.2234 45.7419V32.0317H69.1326L63.5179 45.5998H61.3748L55.7454 32.0317H55.656V45.7419H53.0222V27.1143H56.3665L62.3943 41.8176H62.4968L68.513 27.1143H71.8689V45.7419H69.2234Z" fill="white"/>
<path d="M74.094 41.8821C74.094 39.5076 75.9134 38.0735 79.1419 37.8801L82.8596 37.6729V36.6401C82.8596 35.1299 81.865 34.2773 80.1731 34.2773C79.5465 34.194 78.911 34.3422 78.3859 34.6942C77.8608 35.0461 77.4821 35.5777 77.3211 36.189H74.7137C74.7913 33.7353 77.0765 31.9937 80.2508 31.9937C83.491 31.9937 85.6341 33.7617 85.6341 36.4337V45.742H82.9622V43.5081H82.8977C82.4698 44.2656 81.8463 44.8941 81.0923 45.3281C80.3383 45.762 79.4815 45.9854 78.6116 45.9749C78.0403 46.0308 77.4636 45.9666 76.9186 45.7864C76.3735 45.6062 75.8722 45.314 75.4468 44.9286C75.0213 44.5432 74.6812 44.0731 74.4483 43.5484C74.2153 43.0238 74.0946 42.4562 74.094 41.8821ZM82.8596 40.6561V39.6102L79.5154 39.8167C77.8499 39.9207 76.908 40.6429 76.908 41.8045C76.908 42.9925 77.8894 43.7674 79.3865 43.7674C79.8201 43.7968 80.2552 43.7391 80.6661 43.5977C81.077 43.4563 81.4555 43.2341 81.7792 42.9441C82.1029 42.6542 82.3653 42.3023 82.5508 41.9094C82.7364 41.5164 82.8414 41.0903 82.8596 40.6561Z" fill="white"/>
<path d="M97.3396 36.8336C97.2178 36.0907 96.8209 35.4208 96.228 34.9571C95.635 34.4933 94.8893 34.2695 94.1389 34.3301C91.9959 34.3301 90.5764 36.1246 90.5764 38.9524C90.5764 41.844 92.0091 43.5857 94.1638 43.5857C94.9042 43.6599 95.645 43.4488 96.2351 42.9956C96.8252 42.5424 97.2202 41.8812 97.3396 41.1467H100.025C99.8576 42.5511 99.149 43.8347 98.0497 44.7245C96.9504 45.6142 95.5472 46.0397 94.1389 45.9104C90.2659 45.9104 87.7361 43.2634 87.7361 38.9524C87.7361 34.73 90.2659 31.9937 94.1126 31.9937C95.5313 31.8734 96.9408 32.3121 98.0406 33.2162C99.1404 34.1203 99.8434 35.4184 99.9998 36.8335L97.3396 36.8336Z" fill="white"/>
<path d="M118.139 40.7073H111.039L109.334 45.7419H106.326L113.052 27.1143H116.176L122.901 45.7419H119.842L118.139 40.7073ZM111.774 38.384H117.402L114.628 30.2124H114.55L111.774 38.384Z" fill="white"/>
<path d="M137.425 38.9529C137.425 43.1732 135.166 45.8846 131.758 45.8846C130.894 45.9297 130.035 45.7308 129.28 45.3106C128.524 44.8904 127.902 44.2659 127.485 43.5086H127.42V50.2351H124.633V32.1612H127.331V34.42H127.382C127.819 33.6663 128.451 33.045 129.213 32.6222C129.974 32.1995 130.836 31.991 131.706 32.0191C135.153 32.0191 137.425 34.7437 137.425 38.9529ZM134.56 38.9529C134.56 36.2027 133.139 34.3951 130.971 34.3951C128.841 34.3951 127.408 36.2408 127.408 38.9529C127.408 41.6893 128.841 43.5218 130.971 43.5218C133.139 43.5218 134.56 41.7274 134.56 38.9529Z" fill="white"/>
<path d="M152.372 38.9529C152.372 43.1732 150.114 45.8846 146.705 45.8846C145.841 45.9297 144.983 45.7308 144.227 45.3106C143.471 44.8904 142.849 44.2659 142.432 43.5086H142.367V50.2351H139.58V32.1612H142.278V34.42H142.329C142.766 33.6663 143.398 33.045 144.16 32.6222C144.921 32.1995 145.783 31.991 146.654 32.0191C150.1 32.0191 152.372 34.7437 152.372 38.9529ZM149.507 38.9529C149.507 36.2027 148.086 34.3951 145.918 34.3951C143.788 34.3951 142.356 36.2408 142.356 38.9529C142.356 41.6893 143.788 43.5218 145.918 43.5218C148.086 43.5218 149.507 41.7274 149.507 38.9529Z" fill="white"/>
<path d="M162.251 40.5521C162.458 42.3992 164.252 43.6121 166.704 43.6121C169.054 43.6121 170.744 42.3992 170.744 40.7336C170.744 39.2878 169.725 38.4221 167.311 37.8289L164.897 37.2466C161.476 36.4204 159.889 34.8208 159.889 32.2251C159.889 29.0112 162.689 26.8037 166.666 26.8037C170.602 26.8037 173.301 29.0112 173.391 32.2251H170.577C170.409 30.3662 168.872 29.2442 166.627 29.2442C164.381 29.2442 162.845 30.3794 162.845 32.0318C162.845 33.3486 163.826 34.1235 166.227 34.7168L168.279 35.2207C172.101 36.1245 173.689 37.6597 173.689 40.385C173.689 43.8698 170.913 46.0524 166.498 46.0524C162.367 46.0524 159.578 43.9211 159.398 40.5519L162.251 40.5521Z" fill="white"/>
<path d="M179.705 28.9468V32.1606H182.287V34.3682H179.705V41.8557C179.705 43.0188 180.222 43.5608 181.357 43.5608C181.664 43.5555 181.97 43.5339 182.274 43.4963V45.6906C181.764 45.786 181.245 45.8292 180.726 45.8195C177.976 45.8195 176.904 44.7868 176.904 42.153V34.3681H174.929V32.1606H176.904V28.9468H179.705Z" fill="white"/>
<path d="M183.782 38.9524C183.782 34.6787 186.298 31.9937 190.222 31.9937C194.16 31.9937 196.665 34.6787 196.665 38.9524C196.665 43.2371 194.173 45.9104 190.222 45.9104C186.273 45.9103 183.782 43.2371 183.782 38.9524ZM193.824 38.9524C193.824 36.0205 192.481 34.2905 190.222 34.2905C187.964 34.2905 186.62 36.0337 186.62 38.9524C186.62 41.8953 187.964 43.6121 190.222 43.6121C192.481 43.6121 193.824 41.8953 193.824 38.9524Z" fill="white"/>
<path d="M198.963 32.1611H201.622V34.4726H201.686C201.866 33.7506 202.289 33.1126 202.884 32.6658C203.479 32.219 204.209 31.9906 204.953 32.019C205.274 32.0178 205.595 32.0527 205.908 32.123V34.7304C205.502 34.6065 205.079 34.5496 204.656 34.5619C204.251 34.5455 203.847 34.6169 203.472 34.7712C203.097 34.9256 202.76 35.1592 202.484 35.456C202.208 35.7528 202 36.1059 201.873 36.4909C201.747 36.8759 201.705 37.2837 201.751 37.6864V45.7424H198.963V32.1611Z" fill="white"/>
<path d="M218.761 41.7532C218.386 44.2185 215.985 45.9104 212.913 45.9104C208.962 45.9104 206.51 43.2634 206.51 39.0168C206.51 34.7564 208.975 31.9937 212.796 31.9937C216.553 31.9937 218.916 34.5747 218.916 38.6931V39.6482H209.324V39.8166C209.28 40.3164 209.342 40.8199 209.508 41.2937C209.673 41.7675 209.937 42.2006 210.283 42.5645C210.628 42.9283 211.047 43.2144 211.512 43.4039C211.976 43.5933 212.476 43.6818 212.977 43.6633C213.636 43.725 214.297 43.5725 214.862 43.2283C215.427 42.8842 215.866 42.3668 216.114 41.7532L218.761 41.7532ZM209.337 37.6992H216.127C216.152 37.2498 216.084 36.8001 215.927 36.3783C215.77 35.9565 215.527 35.5717 215.214 35.248C214.902 34.9244 214.525 34.6689 214.109 34.4975C213.693 34.3262 213.246 34.2428 212.796 34.2524C212.342 34.2497 211.892 34.337 211.472 34.5091C211.052 34.6812 210.67 34.9348 210.348 35.2552C210.027 35.5757 209.772 35.9566 209.598 36.3761C209.425 36.7956 209.336 37.2453 209.337 37.6992Z" fill="white"/>
<path d="M37.4951 29.834C37.5118 28.5321 37.8577 27.2556 38.5004 26.1232C39.1431 24.9908 40.0617 24.0394 41.1709 23.3575C40.4663 22.3511 39.5367 21.523 38.456 20.9387C37.3753 20.3545 36.1733 20.0303 34.9453 19.9918C32.326 19.7169 29.7866 21.5592 28.4518 21.5592C27.0912 21.5592 25.0362 20.0191 22.8231 20.0647C21.3917 20.1109 19.9967 20.5272 18.7739 21.2729C17.5512 22.0186 16.5425 23.0683 15.8461 24.3197C12.8294 29.5427 15.0796 37.2188 17.9694 41.4407C19.4152 43.5081 21.1049 45.8173 23.3159 45.7354C25.4795 45.6457 26.2876 44.3558 28.8992 44.3558C31.4866 44.3558 32.2447 45.7354 34.5006 45.6834C36.8223 45.6457 38.285 43.6069 39.6801 41.5199C40.7189 40.0469 41.5183 38.4188 42.0486 36.6961C40.6998 36.1256 39.5488 35.1707 38.739 33.9504C37.9293 32.7302 37.4966 31.2985 37.4951 29.834Z" fill="white"/>
<path d="M33.2342 17.2153C34.5 15.6957 35.1237 13.7425 34.9727 11.7705C33.0387 11.9736 31.2523 12.8979 29.9693 14.3592C29.3421 15.0731 28.8616 15.9036 28.5555 16.8033C28.2494 17.703 28.1236 18.6542 28.1853 19.6025C29.1526 19.6124 30.1096 19.4028 30.9842 18.9893C31.8587 18.5758 32.628 17.9693 33.2342 17.2153Z" fill="white"/>
<path d="M56.7393 13.0961C57.3237 13.0542 57.9101 13.1424 58.4563 13.3546C59.0025 13.5667 59.4948 13.8975 59.8976 14.3229C60.3005 14.7483 60.604 15.2579 60.7861 15.8148C60.9682 16.3717 61.0244 16.9621 60.9507 17.5434C60.9507 20.4027 59.4053 22.0464 56.7393 22.0464H53.5064V13.0961H56.7393ZM54.8965 20.7806H56.584C57.0016 20.8056 57.4195 20.7371 57.8073 20.5802C58.1951 20.4232 58.5431 20.1818 58.8258 19.8735C59.1086 19.5651 59.319 19.1976 59.4418 18.7977C59.5646 18.3978 59.5966 17.9755 59.5357 17.5616C59.5922 17.1493 59.5569 16.7297 59.4322 16.3327C59.3075 15.9357 59.0966 15.5712 58.8145 15.2653C58.5324 14.9594 58.1861 14.7197 57.8005 14.5633C57.4149 14.407 56.9995 14.3379 56.584 14.3609H54.8965V20.7806Z" fill="white"/>
<path d="M62.521 18.6662C62.4785 18.2223 62.5293 17.7745 62.6701 17.3514C62.8108 16.9283 63.0385 16.5392 63.3384 16.2093C63.6383 15.8793 64.0039 15.6156 64.4116 15.4352C64.8194 15.2548 65.2604 15.1616 65.7063 15.1616C66.1522 15.1616 66.5932 15.2548 67.001 15.4352C67.4087 15.6156 67.7743 15.8793 68.0742 16.2093C68.3741 16.5392 68.6018 16.9283 68.7425 17.3514C68.8833 17.7745 68.9341 18.2223 68.8916 18.6662C68.9349 19.1105 68.8847 19.559 68.7443 19.9828C68.6039 20.4066 68.3764 20.7963 68.0764 21.1269C67.7764 21.4575 67.4106 21.7217 67.0024 21.9025C66.5942 22.0833 66.1527 22.1767 65.7063 22.1767C65.2599 22.1767 64.8184 22.0833 64.4102 21.9025C64.002 21.7217 63.6361 21.4575 63.3362 21.1269C63.0362 20.7963 62.8087 20.4066 62.6683 19.9828C62.5279 19.559 62.4777 19.1105 62.521 18.6662ZM67.5205 18.6662C67.5205 17.2021 66.8628 16.3459 65.7085 16.3459C64.5498 16.3459 63.898 17.2021 63.898 18.6662C63.898 20.142 64.5498 20.9916 65.7085 20.9916C66.8628 20.9916 67.5205 20.1362 67.5205 18.6662Z" fill="white"/>
<path d="M77.3599 22.0464H75.9771L74.5811 17.0718H74.4756L73.0855 22.0464H71.7159L69.854 15.292H71.2061L72.4161 20.446H72.5157L73.9043 15.292H75.1831L76.5718 20.446H76.6773L77.8814 15.292H79.2144L77.3599 22.0464Z" fill="white"/>
<path d="M80.7803 15.2918H82.0635V16.3648H82.1631C82.3321 15.9794 82.6171 15.6564 82.9784 15.4407C83.3397 15.225 83.7593 15.1273 84.1787 15.1614C84.5074 15.1367 84.8374 15.1863 85.1443 15.3064C85.4512 15.4266 85.7271 15.6142 85.9516 15.8555C86.1762 16.0968 86.3435 16.3854 86.4413 16.7002C86.5391 17.0149 86.5649 17.3476 86.5166 17.6736V22.0461H85.1836V18.0084C85.1836 16.9229 84.712 16.3831 83.7261 16.3831C83.503 16.3727 83.2802 16.4107 83.0731 16.4945C82.8661 16.5782 82.6795 16.7057 82.5263 16.8683C82.3732 17.0309 82.2569 17.2247 82.1856 17.4364C82.1143 17.6481 82.0897 17.8727 82.1133 18.0948V22.0462H80.7803L80.7803 15.2918Z" fill="white"/>
<path d="M88.6407 12.6553H89.9737V22.0464H88.6407V12.6553Z" fill="white"/>
<path d="M91.8267 18.6662C91.7842 18.2223 91.835 17.7745 91.9757 17.3514C92.1165 16.9283 92.3441 16.5392 92.644 16.2093C92.944 15.8793 93.3095 15.6156 93.7173 15.4352C94.1251 15.2548 94.5661 15.1616 95.012 15.1616C95.4579 15.1616 95.8988 15.2548 96.3066 15.4352C96.7144 15.6156 97.08 15.8793 97.3799 16.2093C97.6798 16.5392 97.9074 16.9283 98.0482 17.3514C98.1889 17.7745 98.2397 18.2223 98.1973 18.6662C98.2405 19.1105 98.1904 19.559 98.05 19.9828C97.9096 20.4066 97.6821 20.7963 97.3821 21.1269C97.0821 21.4575 96.7163 21.7217 96.3081 21.9025C95.8999 22.0833 95.4584 22.1767 95.012 22.1767C94.5655 22.1767 94.124 22.0833 93.7158 21.9025C93.3077 21.7217 92.9418 21.4575 92.6418 21.1269C92.3418 20.7963 92.1143 20.4066 91.9739 19.9828C91.8336 19.559 91.7834 19.1105 91.8267 18.6662ZM96.8262 18.6662C96.8262 17.2021 96.1684 16.3459 95.0142 16.3459C93.8555 16.3459 93.2037 17.2021 93.2037 18.6662C93.2037 20.142 93.8555 20.9916 95.0142 20.9916C96.1684 20.9916 96.8262 20.1362 96.8262 18.6662Z" fill="white"/>
<path d="M99.6006 20.1362C99.6006 18.9204 100.506 18.2195 102.113 18.1199L103.942 18.0144V17.4314C103.942 16.718 103.471 16.3152 102.56 16.3152C101.815 16.3152 101.3 16.5884 101.152 17.0659H99.8614C99.9976 15.9058 101.089 15.1616 102.621 15.1616C104.314 15.1616 105.27 16.0046 105.27 17.4314V22.0464H103.986V21.0972H103.881C103.667 21.4377 103.366 21.7152 103.01 21.9015C102.653 22.0879 102.254 22.1762 101.852 22.1577C101.569 22.1872 101.282 22.1569 101.011 22.0689C100.74 21.9808 100.49 21.8369 100.278 21.6465C100.066 21.456 99.8959 21.2232 99.7792 20.9631C99.6626 20.703 99.6017 20.4213 99.6006 20.1362ZM103.942 19.5591V18.9944L102.293 19.0998C101.363 19.1621 100.941 19.4785 100.941 20.074C100.941 20.6819 101.468 21.0356 102.193 21.0356C102.406 21.0571 102.621 21.0357 102.825 20.9725C103.029 20.9094 103.218 20.8059 103.381 20.6681C103.544 20.5304 103.678 20.3612 103.774 20.1706C103.871 19.9801 103.928 19.7721 103.942 19.5591Z" fill="white"/>
<path d="M107.022 18.6663C107.022 16.532 108.119 15.18 109.825 15.18C110.247 15.1605 110.666 15.2616 111.033 15.4714C111.4 15.6813 111.699 15.9912 111.897 16.365H111.996V12.6553H113.329V22.0464H112.052V20.9792H111.946C111.734 21.3505 111.424 21.6565 111.05 21.8643C110.676 22.072 110.253 22.1735 109.825 22.1577C108.107 22.1578 107.022 20.8057 107.022 18.6663ZM108.399 18.6663C108.399 20.0989 109.074 20.961 110.203 20.961C111.327 20.961 112.021 20.0865 112.021 18.6721C112.021 17.2644 111.319 16.3775 110.203 16.3775C109.081 16.3775 108.399 17.2454 108.399 18.6663Z" fill="white"/>
<path d="M118.844 18.6663C118.802 18.2224 118.853 17.7745 118.993 17.3514C119.134 16.9283 119.362 16.5393 119.662 16.2093C119.962 15.8793 120.327 15.6156 120.735 15.4352C121.143 15.2548 121.584 15.1616 122.03 15.1616C122.476 15.1616 122.917 15.2548 123.325 15.4352C123.733 15.6156 124.098 15.8793 124.398 16.2093C124.698 16.5393 124.926 16.9283 125.066 17.3514C125.207 17.7745 125.258 18.2224 125.216 18.6663C125.259 19.1107 125.209 19.5591 125.068 19.9829C124.928 20.4067 124.7 20.7964 124.4 21.127C124.1 21.4577 123.734 21.7218 123.326 21.9026C122.918 22.0834 122.476 22.1768 122.03 22.1768C121.584 22.1768 121.142 22.0834 120.734 21.9026C120.326 21.7218 119.96 21.4577 119.66 21.127C119.36 20.7964 119.132 20.4067 118.992 19.9829C118.851 19.5591 118.801 19.1107 118.844 18.6663ZM123.844 18.6663C123.844 17.2022 123.186 16.346 122.032 16.346C120.873 16.346 120.221 17.2022 120.221 18.6663C120.221 20.1422 120.873 20.9918 122.032 20.9918C123.186 20.9918 123.844 20.1363 123.844 18.6663Z" fill="white"/>
<path d="M127.004 15.2918H128.287V16.3648H128.387C128.556 15.9794 128.841 15.6564 129.202 15.4407C129.564 15.225 129.983 15.1273 130.403 15.1614C130.731 15.1367 131.061 15.1863 131.368 15.3064C131.675 15.4266 131.951 15.6142 132.176 15.8555C132.4 16.0968 132.567 16.3854 132.665 16.7002C132.763 17.0149 132.789 17.3476 132.741 17.6736V22.0461H131.408V18.0084C131.408 16.9229 130.936 16.3831 129.95 16.3831C129.727 16.3727 129.504 16.4107 129.297 16.4945C129.09 16.5782 128.903 16.7057 128.75 16.8683C128.597 17.0309 128.481 17.2247 128.41 17.4364C128.338 17.6481 128.314 17.8727 128.337 18.0948V22.0462H127.004V15.2918Z" fill="white"/>
<path d="M140.273 13.6104V15.3228H141.736V16.4456H140.273V19.9187C140.273 20.6262 140.564 20.936 141.228 20.936C141.398 20.9355 141.567 20.9252 141.736 20.9053V22.0156C141.497 22.0584 141.254 22.0812 141.011 22.0837C139.529 22.0837 138.938 21.5622 138.938 20.26V16.4455H137.866V15.3227H138.938V13.6104H140.273Z" fill="white"/>
<path d="M143.557 12.6553H144.878V16.3774H144.984C145.161 15.9885 145.454 15.6636 145.822 15.4471C146.191 15.2305 146.617 15.1329 147.043 15.1675C147.37 15.1497 147.697 15.2043 148 15.3273C148.304 15.4504 148.576 15.6389 148.798 15.8794C149.021 16.1199 149.187 16.4065 149.286 16.7187C149.384 17.0309 149.413 17.361 149.369 17.6856V22.0464H148.035V18.0144C148.035 16.9355 147.532 16.3891 146.591 16.3891C146.362 16.3704 146.131 16.4019 145.915 16.4814C145.7 16.561 145.504 16.6868 145.342 16.8499C145.18 17.013 145.056 17.2095 144.978 17.4257C144.9 17.6419 144.87 17.8726 144.89 18.1015V22.0464H143.557L143.557 12.6553Z" fill="white"/>
<path d="M157.142 20.2228C156.961 20.8401 156.568 21.374 156.033 21.7313C155.498 22.0885 154.855 22.2462 154.215 22.1769C153.77 22.1886 153.328 22.1034 152.919 21.9271C152.51 21.7508 152.145 21.4877 151.848 21.156C151.551 20.8242 151.33 20.4319 151.2 20.0062C151.07 19.5804 151.034 19.1315 151.095 18.6905C151.036 18.2482 151.072 17.7983 151.202 17.3713C151.332 16.9443 151.552 16.5501 151.847 16.2155C152.142 15.8809 152.506 15.6137 152.914 15.4319C153.321 15.25 153.763 15.1579 154.209 15.1617C156.089 15.1617 157.222 16.4457 157.222 18.5667V19.0319H152.453V19.1066C152.432 19.3544 152.463 19.6039 152.544 19.8391C152.626 20.0742 152.755 20.2897 152.924 20.4719C153.094 20.6541 153.299 20.7989 153.528 20.897C153.756 20.9951 154.003 21.0443 154.252 21.0416C154.571 21.0798 154.894 21.0224 155.18 20.8766C155.466 20.7308 155.702 20.5032 155.859 20.2227L157.142 20.2228ZM152.453 18.046H155.864C155.881 17.8193 155.85 17.5916 155.774 17.3775C155.698 17.1635 155.577 16.9677 155.421 16.803C155.264 16.6382 155.075 16.508 154.865 16.4207C154.655 16.3334 154.429 16.291 154.202 16.2963C153.971 16.2934 153.743 16.3366 153.529 16.4236C153.315 16.5105 153.121 16.6393 152.958 16.8023C152.795 16.9654 152.667 17.1595 152.58 17.3731C152.493 17.5866 152.45 17.8155 152.453 18.046Z" fill="white"/>
</svg>
