<svg width="142" height="90" viewBox="0 0 142 90" fill="none" xmlns="http://www.w3.org/2000/svg">
<g opacity="0.2">
<g clip-path="url(#clip0_1_4724)">
<path d="M78.6258 40.0189C78.6258 36.6808 78.6834 33.573 78.856 30.6953L70.0505 32.3643V33.1701L70.9137 33.2852C71.5468 33.3427 71.9497 33.573 72.1799 33.9183C72.4101 34.3211 72.5828 34.8967 72.6979 35.76C72.813 37.429 72.9281 41.2275 72.8705 47.213C72.8705 53.141 72.813 56.8819 72.6979 58.3207C75.8633 59.0114 78.3381 59.2991 80.1798 59.2991C83.6329 59.2991 86.3379 58.3207 88.2947 56.3064C90.2515 54.3496 91.2875 51.587 91.2875 48.1914C91.2875 45.4864 90.5393 43.2419 89.0429 41.4577C87.5465 39.6736 85.6473 38.8103 83.4027 38.8103C81.9064 38.8103 80.3524 39.2131 78.6258 40.0189ZM78.7985 57.7452C78.6834 55.9035 78.5683 50.3784 78.5683 41.3426C79.0863 41.1699 79.7769 41.0548 80.6402 41.0548C82.0215 41.0548 83.115 41.7455 83.9207 43.1843C84.7265 44.6231 85.1293 46.3497 85.1293 48.5367C85.1293 51.2417 84.6689 53.4287 83.748 55.2704C82.8272 57.0546 81.6761 57.9754 80.2373 57.9754C79.7769 57.8603 79.3165 57.8027 78.7985 57.7452ZM37.0151 31.2708H13.9939V32.4219L15.2025 32.537C16.1234 32.7097 16.7564 33.055 17.1593 33.573C17.5622 34.1485 17.7924 35.0693 17.8499 36.3355C18.3104 42.5512 18.3104 48.3641 17.8499 53.7165C17.7348 54.9827 17.5046 55.9035 17.1593 56.479C16.7564 57.0546 16.1234 57.3999 15.2025 57.515L13.9939 57.6876V58.8387H28.8426V57.6876L27.2886 57.5725C26.9094 57.5408 26.5406 57.4327 26.2043 57.2546C25.868 57.0766 25.5712 56.8323 25.3318 56.5366C24.929 55.9611 24.6987 55.0402 24.6412 53.774C24.4685 51.4719 24.3534 48.8245 24.3534 45.8893L27.4613 45.9468C29.1303 46.0044 30.2814 47.2706 30.8569 49.8029H32.008V40.4218H30.8569C30.2814 42.8965 29.1879 44.1627 27.4613 44.2203L24.3534 44.2778C24.3534 39.098 24.4685 35.4147 24.6412 33.1701H29.1879C32.4108 33.1701 34.5978 35.242 35.864 39.3858L37.2453 38.9829L37.0151 31.2708ZM34.3101 48.9971C34.3101 51.9899 35.1734 54.4647 36.8424 56.4215C38.5114 58.3783 40.9862 59.2991 44.0941 59.2991C47.2019 59.2991 49.7343 58.3207 51.576 56.3064C53.4177 54.3496 54.2809 51.8748 54.2809 48.882C54.2809 45.8893 53.4177 43.4145 51.7486 41.4577C50.0796 39.5009 47.6048 38.5801 44.497 38.5801C41.3891 38.5801 38.8568 39.5585 37.0151 41.5728C35.1734 43.5296 34.3101 46.0044 34.3101 48.9971ZM47.1444 42.4361C47.835 44.1051 48.1228 46.2922 48.1228 48.9396C48.1228 55.0402 46.8566 58.033 44.3818 58.033C43.1157 58.033 42.1373 57.1697 41.4466 55.4431C40.756 53.7165 40.4682 51.5295 40.4682 48.9396C40.4682 42.8965 41.7344 39.9038 44.2092 39.9038C45.4754 39.8462 46.4538 40.7095 47.1444 42.4361ZM95.7766 56.4215C97.6759 58.3207 100.093 59.2991 102.971 59.2991C104.755 59.2991 106.309 58.9538 107.69 58.2056C109.071 57.515 110.165 56.6517 110.913 55.6157L110.338 54.9251C109.071 55.9035 107.633 56.3639 105.963 56.3639C103.661 56.3639 101.877 55.6157 100.669 54.0618C99.4025 52.5079 98.8269 50.5511 98.942 48.0187H111.258C111.258 45.2562 110.568 43.0116 109.129 41.2275C107.69 39.5009 105.676 38.6376 103.086 38.6376C99.8629 38.6376 97.3881 39.6736 95.604 41.6879C93.8198 43.7023 92.9565 46.1771 92.9565 49.1123C92.9565 52.105 93.8774 54.5222 95.7766 56.4215ZM100.036 41.9757C100.669 40.5944 101.474 39.9038 102.568 39.9038C104.294 39.9038 105.158 42.0908 105.158 46.5224L99.0571 46.6375C99.1147 44.9109 99.4025 43.357 100.036 41.9757ZM126.74 39.6736C125.186 38.9829 123.229 38.5801 120.87 38.5801C118.452 38.5801 116.553 39.2131 115.114 40.4218C113.676 41.6304 112.927 43.1267 112.927 44.9109C112.927 46.4648 113.388 47.6734 114.251 48.5367C115.114 49.4 116.496 50.1482 118.28 50.7813C119.891 51.3568 121.042 51.9323 121.618 52.4503C122.193 53.0259 122.539 53.6589 122.539 54.5222C122.539 55.328 122.251 56.0762 121.618 56.6517C121.042 57.2848 120.237 57.5725 119.201 57.5725C116.668 57.5725 114.769 55.7308 113.445 52.0474L112.467 52.3352L112.697 58.0905C114.769 58.8962 117.071 59.2991 119.604 59.2991C122.251 59.2991 124.265 58.7236 125.762 57.515C127.258 56.3639 128.006 54.6949 128.006 52.623C128.006 51.2417 127.661 50.0907 126.913 49.2274C126.165 48.3641 124.956 47.6159 123.229 46.9252C121.33 46.2346 120.006 45.6015 119.316 45.026C118.625 44.4505 118.28 43.7598 118.28 42.8965C118.28 42.0332 118.51 41.3426 119.028 40.7671C119.546 40.1915 120.179 39.9613 120.985 39.9613C123.287 39.9613 124.956 41.6304 125.992 44.9109L126.97 44.6231L126.74 39.6736ZM71.3742 39.1556C70.5684 38.7527 69.7051 38.5801 68.7267 38.5801C67.7483 38.5801 66.7699 38.9829 65.6764 39.7887C64.5829 40.5944 63.7772 41.6879 63.1441 43.1843L63.2017 38.5801L54.4536 40.3067V41.1124L55.3169 41.1699C56.4104 41.2851 57.0435 42.1483 57.1586 43.7023C57.5039 47.2706 57.5039 51.0691 57.1586 55.0978C57.0435 56.6517 56.4104 57.4574 55.3169 57.6301L54.4536 57.7452V58.8387H66.6548V57.7452L65.1009 57.6301C64.0074 57.515 63.3743 56.6517 63.2592 55.0978C62.9139 51.7597 62.8563 48.1914 63.1441 44.508C63.4894 43.9325 64.2376 43.5872 65.3887 43.4721C66.5397 43.357 67.8634 43.7023 69.2447 44.508L71.3742 39.1556Z" fill="white"/>
</g>
</g>
<defs>
<clipPath id="clip0_1_4724">
<rect width="114.012" height="28" fill="white" transform="translate(13.9939 31)"/>
</clipPath>
</defs>
</svg>
