<svg width="24" height="24" viewBox="0 0 24 24" fill="none" xmlns="http://www.w3.org/2000/svg">
<path d="M17.9391 11.3953C17.9297 9.67499 18.7078 8.37655 20.2828 7.4203C19.4016 6.15936 18.0703 5.46561 16.3125 5.32968C14.6484 5.19843 12.8297 6.29999 12.1641 6.29999C11.4609 6.29999 9.84844 5.37655 8.58281 5.37655C5.96719 5.41874 3.1875 7.46249 3.1875 11.6203C3.1875 12.8484 3.4125 14.1172 3.8625 15.4266C4.4625 17.1469 6.62812 21.3656 8.8875 21.2953C10.0687 21.2672 10.9031 20.4562 12.4406 20.4562C13.9312 20.4562 14.7047 21.2953 16.0219 21.2953C18.3 21.2625 20.2594 17.4281 20.8312 15.7031C17.775 14.2641 17.9391 11.4844 17.9391 11.3953ZM15.2859 3.69843C16.5656 2.17968 16.4484 0.796863 16.4109 0.299988C15.2812 0.365613 13.9734 1.06874 13.2281 1.93593C12.4078 2.86405 11.925 4.01249 12.0281 5.30624C13.2516 5.39999 14.3672 4.77186 15.2859 3.69843Z" fill="white"/>
</svg>
