<svg width="36" height="36" viewBox="0 0 36 36" fill="none" xmlns="http://www.w3.org/2000/svg">
<path fill-rule="evenodd" clip-rule="evenodd" d="M19.5867 26.1055L18.7991 24.4611L21.2316 19.3826L23.9937 25.1488H24.0188L29.7737 13.1341C29.9108 12.8478 29.79 12.5045 29.504 12.3673C29.4265 12.3301 29.3416 12.3108 29.2557 12.3108H22.9973L20.4208 17.6898L17.9883 22.7684L14.3252 30.4164C13.7974 31.7112 12.3206 32.3328 11.0266 31.8046C10.4359 31.5635 9.95946 31.1086 9.69041 30.5332L9.6394 30.4165L0.471184 11.2749C-0.079504 10.1252 0.426491 8.75625 1.60136 8.21734C1.91341 8.0742 2.25383 8 2.59847 8H13.5396C14.9067 8 16.1504 8.77374 16.7306 9.98513L17.1773 10.918L14.7447 15.9963L13.2922 12.9636C13.1012 12.5647 12.6983 12.3108 12.2563 12.3108H6.74463C6.42741 12.3108 6.17025 12.5682 6.17025 12.8856C6.17025 12.9716 6.18953 13.0565 6.22667 13.1341L11.9817 25.1488L15.5554 17.6897L17.9882 12.6107L19.2462 9.98501C19.8264 8.77368 21.0701 8 22.4371 8H33.4018C34.6993 8 35.7512 9.02935 35.7512 10.2991C35.7512 10.6364 35.6754 10.9695 35.5291 11.2749L26.3609 30.4165L26.3554 30.4239C25.8211 31.7229 24.3356 32.3426 23.0375 31.8079C22.4498 31.5659 21.9757 31.1131 21.706 30.5409L21.6514 30.4165L19.5867 26.1055Z" fill="url(#paint0_linear_1_4754)"/>
<path fill-rule="evenodd" clip-rule="evenodd" d="M27.3056 8C25.8939 8 24.676 8.81231 24.1118 9.98389L22.8535 12.6103L22.9974 12.3108L20.4209 17.6898L19.9691 18.6328H15.1035L15.5556 17.6897L17.9883 12.6107L19.2463 9.98501C19.8265 8.77368 21.0702 8 22.4372 8L27.3056 8Z" fill="url(#paint1_linear_1_4754)"/>
<path fill-rule="evenodd" clip-rule="evenodd" d="M33.4017 8C34.6992 8 35.751 9.02935 35.751 10.2991C35.751 10.6364 35.6752 10.9695 35.5289 11.2749L31.9852 18.6731L27.3415 18.2112L29.7735 13.1341C29.9106 12.8478 29.7899 12.5045 29.5038 12.3673C29.4263 12.3301 29.3415 12.3108 29.2555 12.3108H24.4759L22.9971 12.3103L24.1115 9.98389C24.6757 8.81231 25.8936 8 27.3053 8L33.4017 8Z" fill="url(#paint2_linear_1_4754)" style="mix-blend-mode:multiply"/>
<defs>
<linearGradient id="paint0_linear_1_4754" x1="17.9999" y1="31.8482" x2="17.9999" y2="8" gradientUnits="userSpaceOnUse">
<stop stop-color="#FF5100"/>
<stop offset="1" stop-color="#FF1522"/>
</linearGradient>
<linearGradient id="paint1_linear_1_4754" x1="21.2045" y1="16.5041" x2="21.2045" y2="8.3288" gradientUnits="userSpaceOnUse">
<stop stop-color="#FD7821" stop-opacity="0"/>
<stop offset="0.489347" stop-color="#FF5100"/>
<stop offset="1" stop-color="#FF9B27"/>
</linearGradient>
<linearGradient id="paint2_linear_1_4754" x1="30.4458" y1="16.0419" x2="25.2415" y2="9.50253" gradientUnits="userSpaceOnUse">
<stop stop-color="#FD7821" stop-opacity="0"/>
<stop offset="1" stop-color="#881000" stop-opacity="0.924541"/>
</linearGradient>
</defs>
</svg>
