<svg width="96" height="90" viewBox="0 0 96 90" fill="none" xmlns="http://www.w3.org/2000/svg">
<g opacity="0.2">
<g clip-path="url(#clip0_1_4683)">
<path d="M34.029 39.7562C34.029 40.5449 34.1143 41.1844 34.2635 41.6533C34.434 42.1223 34.6471 42.6338 34.9456 43.1881C35.0521 43.3586 35.0948 43.5291 35.0948 43.6783C35.0948 43.8915 34.9669 44.1046 34.6898 44.3178L33.3469 45.2131C33.155 45.3409 32.9632 45.4049 32.7927 45.4049C32.5795 45.4049 32.3664 45.2983 32.1532 45.1065C31.8548 44.7867 31.599 44.4457 31.3858 44.1046C31.1727 43.7423 30.9595 43.3373 30.725 42.847C29.0624 44.8081 26.9735 45.7886 24.4582 45.7886C22.6677 45.7886 21.2395 45.277 20.195 44.2538C19.1506 43.2307 18.6177 41.8665 18.6177 40.1612C18.6177 38.3494 19.2571 36.8786 20.5574 35.7702C21.8577 34.6617 23.5843 34.1075 25.7798 34.1075C26.5045 34.1075 27.2506 34.1715 28.0393 34.2781C28.8279 34.3846 29.6379 34.5552 30.4906 34.747V33.1909C30.4906 31.571 30.1495 30.4412 29.4887 29.7804C28.8066 29.1196 27.6556 28.7999 26.0143 28.7999C25.2682 28.7999 24.5008 28.8852 23.7121 29.077C22.9235 29.2688 22.1561 29.5033 21.41 29.8017C21.069 29.951 20.8132 30.0362 20.664 30.0788C20.5148 30.1215 20.4082 30.1428 20.3229 30.1428C20.0245 30.1428 19.8753 29.9296 19.8753 29.482V28.4375C19.8753 28.0965 19.9179 27.8407 20.0245 27.6915C20.1311 27.5423 20.3229 27.3931 20.6214 27.2438C21.3674 26.8602 22.2627 26.5404 23.3071 26.2846C24.3516 26.0075 25.46 25.8796 26.6324 25.8796C29.169 25.8796 31.0235 26.4552 32.2171 27.6062C33.3895 28.7573 33.9864 30.5052 33.9864 32.8499V39.7562H34.029ZM25.3748 42.9962C26.0782 42.9962 26.8029 42.8683 27.5703 42.6125C28.3377 42.3567 29.0198 41.8878 29.5953 41.2483C29.9364 40.8433 30.1921 40.3957 30.32 39.8841C30.4479 39.3725 30.5332 38.7544 30.5332 38.0296V37.1344C29.915 36.9852 29.2543 36.8573 28.5721 36.772C27.89 36.6867 27.2293 36.6441 26.5685 36.6441C25.1403 36.6441 24.0958 36.9212 23.3924 37.4967C22.689 38.0723 22.3479 38.8823 22.3479 39.9481C22.3479 40.9499 22.6037 41.6959 23.1366 42.2075C23.6482 42.7404 24.3943 42.9962 25.3748 42.9962ZM42.4914 45.2983C42.1077 45.2983 41.8519 45.2344 41.6814 45.0852C41.5108 44.9573 41.3616 44.6588 41.2337 44.2538L36.2245 27.7767C36.0966 27.3504 36.0327 27.0733 36.0327 26.9241C36.0327 26.5831 36.2032 26.3912 36.5443 26.3912H38.6332C39.0382 26.3912 39.3153 26.4552 39.4645 26.6044C39.635 26.7323 39.7629 27.0307 39.8908 27.4357L43.4719 41.5467L46.7971 27.4357C46.9037 27.0094 47.0316 26.7323 47.2021 26.6044C47.3727 26.4765 47.6711 26.3912 48.0548 26.3912H49.76C50.165 26.3912 50.4421 26.4552 50.6127 26.6044C50.7832 26.7323 50.9324 27.0307 51.0177 27.4357L54.3856 41.7173L58.0732 27.4357C58.2011 27.0094 58.3503 26.7323 58.4995 26.6044C58.67 26.4765 58.9471 26.3912 59.3308 26.3912H61.3132C61.6542 26.3912 61.8461 26.5617 61.8461 26.9241C61.8461 27.0307 61.8248 27.1373 61.8035 27.2652C61.7821 27.3931 61.7395 27.5636 61.6542 27.7981L56.5171 44.2752C56.3892 44.7015 56.24 44.9786 56.0695 45.1065C55.899 45.2344 55.6219 45.3196 55.2595 45.3196H53.4264C53.0214 45.3196 52.7442 45.2557 52.5737 45.1065C52.4032 44.9573 52.254 44.6802 52.1687 44.2538L48.8648 30.5052L45.5821 44.2325C45.4756 44.6588 45.3477 44.9359 45.1771 45.0852C45.0066 45.2344 44.7082 45.2983 44.3245 45.2983H42.4914ZM69.8821 45.8738C68.7737 45.8738 67.6653 45.7459 66.5995 45.4902C65.5337 45.2344 64.7024 44.9573 64.1482 44.6375C63.8071 44.4457 63.5727 44.2325 63.4874 44.0407C63.4021 43.8488 63.3595 43.6357 63.3595 43.4438V42.3567C63.3595 41.9091 63.53 41.6959 63.8498 41.6959C63.9777 41.6959 64.1056 41.7173 64.2335 41.7599C64.3614 41.8025 64.5532 41.8878 64.7664 41.9731C65.4911 42.2928 66.2798 42.5486 67.1111 42.7191C67.9637 42.8896 68.795 42.9749 69.6477 42.9749C70.9906 42.9749 72.035 42.7404 72.7598 42.2715C73.4845 41.8025 73.8682 41.1204 73.8682 40.2465C73.8682 39.6496 73.6764 39.1594 73.2927 38.7544C72.909 38.3494 72.1842 37.987 71.1398 37.6459L68.049 36.6867C66.4929 36.1965 65.3419 35.4717 64.6385 34.5125C63.935 33.5746 63.5727 32.5302 63.5727 31.4217C63.5727 30.5265 63.7645 29.7378 64.1482 29.0557C64.5319 28.3736 65.0435 27.7767 65.6829 27.3078C66.3224 26.8175 67.0471 26.4552 67.8998 26.1994C68.7524 25.9436 69.6477 25.837 70.5856 25.837C71.0545 25.837 71.5448 25.8583 72.0137 25.9223C72.504 25.9862 72.9516 26.0715 73.3992 26.1567C73.8256 26.2633 74.2306 26.3699 74.6142 26.4978C74.9979 26.6257 75.2963 26.7536 75.5095 26.8815C75.8079 27.052 76.0211 27.2225 76.149 27.4144C76.2769 27.5849 76.3408 27.8194 76.3408 28.1178V29.1196C76.3408 29.5673 76.1703 29.8017 75.8506 29.8017C75.68 29.8017 75.4029 29.7165 75.0406 29.546C73.8256 28.9917 72.4614 28.7146 70.9479 28.7146C69.7329 28.7146 68.7737 28.9065 68.1129 29.3115C67.4521 29.7165 67.1111 30.3346 67.1111 31.2086C67.1111 31.8054 67.3242 32.317 67.7506 32.722C68.1769 33.127 68.9656 33.532 70.0953 33.8944L73.1221 34.8536C74.6569 35.3438 75.7653 36.0259 76.4261 36.8999C77.0869 37.7738 77.4066 38.7757 77.4066 39.8841C77.4066 40.8007 77.2148 41.632 76.8524 42.3567C76.4687 43.0815 75.9571 43.7209 75.2963 44.2325C74.6356 44.7654 73.8469 45.1491 72.9303 45.4262C71.9711 45.7246 70.9692 45.8738 69.8821 45.8738Z" fill="white"/>
<path fill-rule="evenodd" clip-rule="evenodd" d="M73.9124 56.2356C66.8995 61.4154 56.7105 64.1651 47.9497 64.1651C35.6719 64.1651 24.609 59.6248 16.2532 52.079C15.5924 51.4822 16.1892 50.6722 16.9779 51.1412C26.0158 56.3848 37.164 59.5609 48.6958 59.5609C56.4761 59.5609 65.0237 57.9409 72.8892 54.6156C74.0616 54.0827 75.0634 55.383 73.9124 56.2356Z" fill="white"/>
<path fill-rule="evenodd" clip-rule="evenodd" d="M76.8362 52.9054C75.941 51.7543 70.9104 52.3512 68.6296 52.6283C67.9475 52.7135 67.841 52.1167 68.4591 51.669C72.4665 48.8554 79.0531 49.6654 79.8204 50.6033C80.5878 51.5625 79.6073 58.149 75.8557 61.3038C75.2802 61.794 74.726 61.5383 74.9818 60.8988C75.8344 58.7885 77.7315 54.0351 76.8362 52.9054Z" fill="white"/>
</g>
</g>
<defs>
<clipPath id="clip0_1_4683">
<rect width="64.8" height="38.7947" fill="white" transform="translate(15.6001 25.6026)"/>
</clipPath>
</defs>
</svg>
